<svg width="20" height="22" viewBox="0 0 20 22" fill="none" xmlns="http://www.w3.org/2000/svg">
  <path d="M2.49615 18.3105C2.87316 18.549 3.42296 18.7853 4.14556 18.9888C5.65859 19.4286 7.79211 19.6678 10.0256 19.6678C12.2612 19.6678 14.3591 19.4286 15.9064 18.9888C16.6261 18.7853 17.1773 18.549 17.5551 18.3105M2.49615 18.3105L2.57848 18.1851C2.57812 18.1849 2.57775 18.1846 2.57738 18.1844M2.49615 18.3105L2.57634 18.1837C2.57669 18.1839 2.57703 18.1841 2.57738 18.1844M2.49615 18.3105C2.18626 18.107 2.08272 18.0049 2.08272 17.9377C2.08272 17.6671 3.14806 17.0902 4.93599 16.7146C5.02567 16.6993 5.11112 16.6653 5.18683 16.6148C5.26253 16.5644 5.32679 16.4986 5.37546 16.4217C5.42412 16.3448 5.4561 16.2586 5.46933 16.1686C5.48256 16.0786 5.47673 15.9868 5.45224 15.8992L15.0474 15.3251M2.57738 18.1844C2.9382 18.4124 3.47296 18.6436 4.18622 18.8444L4.18743 18.8448C5.68206 19.2793 7.80022 19.5178 10.0256 19.5178C12.2526 19.5178 14.3356 19.2794 15.8653 18.8445L15.8656 18.8445C16.5737 18.6442 17.1087 18.414 17.4702 18.1866M2.57738 18.1844C2.42451 18.0839 2.32987 18.0132 2.2747 17.9625C2.25915 17.9482 2.2483 17.9369 2.24088 17.9284C2.24343 17.9245 2.2467 17.9198 2.25089 17.9144C2.27271 17.886 2.31038 17.8488 2.3684 17.8043C2.48399 17.7157 2.66205 17.6118 2.9015 17.5018C3.37853 17.2827 4.07984 17.0479 4.96421 16.862C5.07351 16.8428 5.17766 16.8012 5.27002 16.7396C5.3632 16.6775 5.4423 16.5966 5.50219 16.5019C5.56209 16.4073 5.60146 16.3012 5.61774 16.1904C5.63332 16.0844 5.62742 15.9763 5.60045 15.8727C5.55356 15.4026 5.08019 15.1278 4.62933 15.2462C3.40482 15.5024 2.3981 15.837 1.69371 16.2697C0.98771 16.7033 0.560358 17.2527 0.560358 17.9377C0.560358 18.4739 0.852793 18.9414 1.34151 19.3341C1.82916 19.726 2.52559 20.0554 3.3726 20.3212C5.06808 20.8533 7.40516 21.1424 9.99276 21.1424C12.5804 21.1424 14.9174 20.8533 16.6129 20.3212C17.4599 20.0554 18.1564 19.726 18.644 19.3341C19.1327 18.9414 19.4252 18.4739 19.4252 17.9377C19.4252 17.234 18.9689 16.6673 18.2169 16.2218C17.4647 15.7761 16.3883 15.4327 15.0762 15.1779M17.4702 18.1866C17.4687 18.1878 17.4672 18.1889 17.4657 18.19L17.5551 18.3105M17.4702 18.1866C17.4718 18.1856 17.4734 18.1846 17.475 18.1836L17.5551 18.3105M17.4702 18.1866C17.604 18.0872 17.6898 18.0171 17.7414 17.9662C17.7585 17.9493 17.7698 17.9365 17.7771 17.9273M17.5551 18.3105C17.8292 18.107 17.9328 18.0049 17.9328 17.9377C17.9328 17.6321 16.7653 17.0202 14.8053 16.6475M14.8053 16.6475L14.7822 16.7957C14.7813 16.7956 14.7805 16.7954 14.7796 16.7953M14.8053 16.6475C14.7173 16.6338 14.633 16.6024 14.5574 16.5554C14.4818 16.5084 14.4164 16.4466 14.3652 16.3738C14.3139 16.301 14.2779 16.2186 14.2592 16.1315C14.2404 16.0444 14.2394 15.9545 14.2562 15.8671C14.2717 15.7791 14.3046 15.6951 14.353 15.6201C14.4014 15.545 14.4642 15.4803 14.5379 15.4298C14.6116 15.3794 14.6946 15.3441 14.7821 15.3261C14.8696 15.3081 14.9598 15.3078 15.0474 15.3251M14.8053 16.6475L14.7773 16.7949C14.7781 16.795 14.7788 16.7951 14.7796 16.7953M17.7771 17.9273C17.7819 17.9361 17.7828 17.9404 17.7829 17.9405C17.7829 17.9405 17.7828 17.9396 17.7828 17.9377C17.7828 17.9158 17.7911 17.9067 17.7854 17.9157C17.7836 17.9186 17.7809 17.9225 17.7771 17.9273ZM17.7771 17.9273C17.7736 17.9209 17.7682 17.9122 17.7597 17.901C17.735 17.8688 17.693 17.8276 17.6291 17.7792C17.5018 17.6827 17.3061 17.5713 17.0433 17.4549C16.5197 17.223 15.7501 16.98 14.7796 16.7953M14.7796 16.7953C14.6727 16.7782 14.5702 16.74 14.4782 16.6828C14.3855 16.6251 14.3053 16.5494 14.2425 16.4601C14.1797 16.3708 14.1355 16.2698 14.1125 16.163C14.0896 16.0567 14.0884 15.9468 14.1087 15.8399C14.1278 15.7327 14.1679 15.6303 14.2269 15.5388C14.2861 15.447 14.363 15.3678 14.4532 15.3061C14.5433 15.2443 14.6449 15.2012 14.7519 15.1792C14.8588 15.1572 14.9691 15.1568 15.0762 15.1779M15.0762 15.1779C15.0761 15.1779 15.0761 15.1779 15.076 15.1779L15.0474 15.3251M15.0762 15.1779C15.0763 15.1779 15.0764 15.1779 15.0765 15.178L15.0474 15.3251M8.85062 18.0659L8.84847 18.0644C8.52242 17.8415 8.21295 17.5952 7.9225 17.3275C7.20502 16.6828 6.42418 15.8412 5.7203 14.9535C5.17184 14.2621 4.43526 13.2447 3.83517 12.0995C3.23633 10.9567 2.766 9.67279 2.766 8.45185C2.766 6.39714 3.43617 4.49838 4.65987 3.11106C5.27993 2.4048 6.04441 1.83992 6.90163 1.45463L6.90169 1.4546C7.79693 1.05265 8.77912 0.849512 9.82139 0.849512C10.8636 0.849512 11.8473 1.05264 12.7412 1.45464L12.6797 1.59144L12.7412 1.45464C13.5985 1.84021 14.3631 2.40506 14.9837 3.11113C16.2089 4.49855 16.8768 6.39733 16.8768 8.45185C16.8768 9.67279 16.4066 10.9561 15.808 12.0987C15.2081 13.2436 14.4717 14.261 13.9233 14.9534L13.9232 14.9535C13.2185 15.8413 12.4375 16.6853 11.7203 17.3281C11.7203 17.3282 11.7202 17.3282 11.7202 17.3283L11.62 17.2166C11.2794 17.5229 10.9753 17.7664 10.7104 17.9406L8.85062 18.0659ZM8.85062 18.0659C9.22159 18.3103 9.52644 18.4355 9.82139 18.4355C10.1198 18.4355 10.4239 18.3104 10.7931 18.0657L8.85062 18.0659ZM10.8546 16.0135C11.5702 15.333 12.2326 14.5987 12.8358 13.8168L12.836 13.8165C14.4272 11.765 15.3151 9.80774 15.3151 8.44971V8.4495C15.3175 6.65299 14.7487 5.13847 13.7816 4.0748C12.8155 3.01216 11.4443 2.3905 9.82139 2.3905C8.19959 2.3905 6.8283 3.01214 5.86129 4.07485C4.89334 5.13859 4.32269 6.65318 4.32269 8.44971C4.32269 9.80771 5.21126 11.7649 6.80243 13.8165L10.8546 16.0135ZM10.8546 16.0135C10.3333 16.5003 9.99278 16.7425 9.81877 16.8461C9.64507 16.7422 9.30379 16.4998 8.78281 16.0131C8.13045 15.4032 7.42743 14.6217 6.80247 13.8165L10.8546 16.0135ZM7.33613 10.2715C7.99783 10.925 8.89132 11.2899 9.82128 11.2866M7.33613 10.2715L13.3359 7.81565C13.3359 7.81575 13.3359 7.81585 13.3359 7.81595C13.3358 8.74361 12.9698 9.61727 12.3067 10.2715C11.6453 10.9256 10.7515 11.2906 9.82128 11.2866M7.33613 10.2715C7.00966 9.95142 6.75045 9.5693 6.5737 9.14762C6.39691 8.72584 6.30619 8.27298 6.30688 7.81565M7.33613 10.2715L6.30688 7.81565M9.82128 11.2866C9.82109 11.2866 9.82091 11.2866 9.82072 11.2866L9.82139 11.1366L9.82196 11.2866C9.82173 11.2866 9.82151 11.2866 9.82128 11.2866ZM9.82168 4.34469C10.7602 4.34477 11.6434 4.70556 12.3064 5.36022L6.30688 7.81565M9.82168 4.34469C9.82178 4.34469 9.82188 4.34469 9.82198 4.34469L9.82139 4.49469V4.34469C9.82149 4.34469 9.82159 4.34469 9.82168 4.34469ZM9.82168 4.34469C8.89141 4.34113 7.99763 4.70639 7.33612 5.36048C6.67374 6.01466 6.30688 6.88771 6.30688 7.81565M6.30688 7.81565C6.30688 7.81557 6.30688 7.81549 6.30688 7.81541L6.45688 7.81565H6.30688ZM12.9546 13.9085C14.5511 11.8499 15.4651 9.8592 15.4651 8.44971L10.9574 16.1227C11.6788 15.4368 12.3465 14.6966 12.9546 13.9085ZM7.86643 7.81351C7.86643 6.75209 8.74145 5.88496 9.82139 5.88496C10.9041 5.88496 11.7771 6.75203 11.7771 7.81351C11.7771 8.87479 10.9015 9.74134 9.82139 9.74134C8.74138 9.74134 7.86643 8.87486 7.86643 7.81351Z" fill="#34364D" stroke="#34364D" stroke-width="0.3"/>
</svg>
