<svg width="20" height="18" viewBox="0 0 20 18" fill="none" xmlns="http://www.w3.org/2000/svg">
<g clip-path="url(#clip0)">
<mask id="path-1-outside-1" maskUnits="userSpaceOnUse" x="-0.944153" y="-0.905273" width="22" height="19" fill="black">
<rect fill="white" x="-0.944153" y="-0.905273" width="22" height="19"/>
<path d="M19.8085 5.4087L16.8112 0.469189C16.6852 0.261303 16.4453 0.143816 16.2091 0.17304L8.65362 1.01735C8.53116 1.03107 8.4155 1.08074 8.32125 1.16011L7.60085 1.76745L5.49979 0.216581C5.24473 0.028488 4.8874 0.0607344 4.67193 0.295413L0.221539 5.1156C0.129141 5.21536 0.0719723 5.34264 0.0587818 5.47797C0.0455913 5.6133 0.0771055 5.74923 0.148502 5.86495L1.24279 7.64425L1.12123 7.74226C0.77609 8.02014 0.559388 8.41612 0.512506 8.85684C0.465034 9.29756 0.592247 9.73035 0.86983 10.0749C1.03747 10.2834 1.25315 10.4481 1.4984 10.555C1.47422 10.6424 1.45721 10.7316 1.44752 10.8218C1.40004 11.2625 1.52726 11.6953 1.80484 12.0399C2.04479 12.3377 2.37364 12.5391 2.73851 12.6193C2.60473 13.1148 2.70092 13.6658 3.04663 14.0955C3.36316 14.4882 3.83432 14.7134 4.33896 14.7134C4.41668 14.7134 4.49401 14.7076 4.57048 14.6967C4.55667 15.0818 4.67529 15.4735 4.93551 15.7967C5.25204 16.1893 5.7232 16.4145 6.22846 16.4145C6.60526 16.4145 6.97415 16.2843 7.26877 16.0471L7.6735 15.7208L8.61039 16.7797C8.6243 16.7954 8.63893 16.8105 8.65423 16.8248C9.00181 17.1456 9.44801 17.3197 9.91795 17.3197C9.9429 17.3197 9.96847 17.3191 9.99404 17.3182C10.4914 17.2984 10.9516 17.0859 11.29 16.7198C11.434 16.5632 11.5482 16.3818 11.6273 16.1844C11.9785 16.469 12.4095 16.6136 12.8727 16.5965C13.3707 16.5764 13.8309 16.364 14.1681 15.9981C14.3355 15.817 14.4633 15.6089 14.5467 15.3845C15.2632 15.7178 16.141 15.5678 16.7028 14.9584C17.0882 14.5415 17.2464 13.9942 17.1837 13.4701C17.5429 13.3913 17.8832 13.2056 18.151 12.9152C18.8486 12.1601 18.8017 10.978 18.0694 10.3032L16.9328 9.13676L19.73 6.15869C19.9218 5.95471 19.954 5.64793 19.8085 5.4087ZM3.57257 8.42675L2.42086 9.35537C2.32712 9.43087 2.2285 9.44668 2.16275 9.44668C2.03674 9.44668 1.91987 9.39069 1.84074 9.29268C1.77134 9.20714 1.7403 9.0994 1.75187 8.99014C1.75737 8.9362 1.77362 8.8839 1.79965 8.83633C1.82568 8.78877 1.86097 8.74689 1.90344 8.71317L3.05577 7.78457C3.14951 7.70879 3.24752 7.69297 3.31387 7.69297C3.37552 7.69283 3.4364 7.70654 3.49204 7.73309C3.54767 7.75964 3.59663 7.79835 3.63529 7.84636C3.77832 8.02348 3.75033 8.2837 3.57257 8.42675ZM2.68688 10.9551C2.69238 10.9012 2.70863 10.8489 2.73466 10.8013C2.76069 10.7537 2.79598 10.7119 2.83845 10.6781L3.99078 9.74951C4.08452 9.67373 4.18253 9.65791 4.24888 9.65791C4.31052 9.65777 4.37141 9.67148 4.42704 9.69803C4.48267 9.72458 4.53162 9.76329 4.57028 9.8113C4.71333 9.98844 4.68533 10.2487 4.50758 10.3917L3.35587 11.3204C3.26213 11.3959 3.1635 11.4117 3.09715 11.4117C2.97175 11.4117 2.85488 11.356 2.77575 11.2577C2.70635 11.1721 2.67531 11.0644 2.68688 10.9551ZM4.01755 13.3133C3.87449 13.1359 3.90249 12.8756 4.07902 12.7332L5.23255 11.804C5.32567 11.7288 5.4243 11.713 5.49004 11.713C5.61605 11.713 5.73292 11.7687 5.81205 11.867C5.88145 11.9525 5.91249 12.0603 5.90093 12.1695C5.89542 12.2235 5.87917 12.2758 5.85314 12.3233C5.82711 12.3709 5.79182 12.4128 5.74935 12.4465L4.59703 13.3751C4.50329 13.4509 4.40527 13.4667 4.33892 13.4667C4.27728 13.4668 4.2164 13.4531 4.16078 13.4266C4.10516 13.4 4.05621 13.3613 4.01755 13.3133ZM6.48654 15.0765C6.3928 15.152 6.29418 15.1678 6.22843 15.1678C6.10243 15.1678 5.98494 15.1118 5.90642 15.0144C5.76337 14.837 5.79137 14.5767 5.9679 14.4343L7.12143 13.5054C7.21455 13.4299 7.31318 13.4141 7.37892 13.4141C7.50493 13.4141 7.6218 13.4701 7.70093 13.5678C7.73492 13.61 7.76027 13.6585 7.77552 13.7105C7.79077 13.7625 7.79562 13.817 7.7898 13.8709C7.77824 13.9802 7.72468 14.0785 7.63823 14.1479L6.48654 15.0765ZM17.2355 12.0694C17.0053 12.3177 16.617 12.3351 16.3662 12.1093L15.1609 10.9962C15.1597 10.9956 15.1591 10.9947 15.1579 10.9941V10.9938C15.1524 10.9889 15.1469 10.9837 15.1414 10.9789H15.1408C15.1408 10.9789 15.1408 10.9786 15.139 10.9774C15.139 10.978 15.1384 10.9767 15.1378 10.9758H15.1372C14.884 10.7637 14.5053 10.7862 14.2789 11.0328C14.0463 11.286 14.0628 11.6792 14.3148 11.9124L15.5158 13.0206C15.5188 13.0233 15.5219 13.0263 15.5249 13.0291L15.752 13.2391C16.0028 13.4704 16.0186 13.8624 15.7873 14.1129C15.5566 14.3628 15.1652 14.3795 14.9138 14.1476L14.0871 13.3846L14.0634 13.3627L13.2355 12.5981L13.2264 12.5902C12.9744 12.3573 12.5787 12.3722 12.3462 12.6255C12.1124 12.8784 12.1283 13.2726 12.3809 13.5063L13.2307 14.291L13.2313 14.2913C13.3445 14.402 13.4097 14.5494 13.4163 14.7082C13.423 14.8732 13.3646 15.0309 13.252 15.1523C13.14 15.2737 12.9878 15.344 12.8228 15.3507C12.6591 15.3611 12.5008 15.2996 12.3791 15.1873L11.1507 14.0529C11.1452 14.0481 11.1397 14.0429 11.1342 14.038L10.5973 13.5428C10.3447 13.3091 9.94965 13.3255 9.7165 13.5782C9.48337 13.8314 9.49918 14.2255 9.7524 14.459L10.2984 14.963C10.5535 15.2083 10.5906 15.6393 10.3739 15.8743C10.2619 15.9954 10.1091 16.066 9.94413 16.0724C9.78647 16.0785 9.63855 16.0271 9.51984 15.926L8.62853 14.9188C8.85225 14.6642 8.99263 14.3479 9.02921 14.004C9.07668 13.5632 8.94947 13.1307 8.67189 12.7859C8.30818 12.3343 7.7099 12.1283 7.14794 12.1981C7.16626 11.794 7.03855 11.402 6.78301 11.0848C6.54515 10.7896 6.20696 10.5995 5.8443 10.5226C5.98523 10.0227 5.8912 9.46411 5.54122 9.02914C5.37178 8.81907 5.15158 8.66252 4.90808 8.56194C5.05079 8.06097 4.95721 7.50038 4.60623 7.06418C4.0529 6.37784 2.96023 6.26036 2.27297 6.81368L2.22111 6.8555L1.4579 5.61418L5.20887 1.55123L6.62091 2.59363L4.89049 4.05249C4.68108 4.22902 4.61171 4.52151 4.71883 4.77352C4.74562 4.83622 5.3933 6.31117 7.07948 6.36657C8.63092 6.41198 9.77901 5.88024 10.4634 5.43254L14.442 8.36655L17.2002 11.1959C17.4509 11.4272 17.4662 11.8192 17.2355 12.0694ZM16.0622 8.24323L15.2991 7.46011C15.2758 7.43567 15.2503 7.41337 15.223 7.39346L11.3512 4.5381C11.3902 4.33426 11.3272 4.11562 11.164 3.96389C10.9133 3.72985 10.5188 3.74414 10.2832 3.99616C10.2716 4.00802 9.1534 5.18714 7.12088 5.12046C6.64121 5.10465 6.31615 4.86724 6.11649 4.64931L8.97994 2.2351L15.9523 1.45624L18.4974 5.65036L16.0622 8.24323Z"/>
</mask>
<path d="M19.8085 5.4087L16.8112 0.469189C16.6852 0.261303 16.4453 0.143816 16.2091 0.17304L8.65362 1.01735C8.53116 1.03107 8.4155 1.08074 8.32125 1.16011L7.60085 1.76745L5.49979 0.216581C5.24473 0.028488 4.8874 0.0607344 4.67193 0.295413L0.221539 5.1156C0.129141 5.21536 0.0719723 5.34264 0.0587818 5.47797C0.0455913 5.6133 0.0771055 5.74923 0.148502 5.86495L1.24279 7.64425L1.12123 7.74226C0.77609 8.02014 0.559388 8.41612 0.512506 8.85684C0.465034 9.29756 0.592247 9.73035 0.86983 10.0749C1.03747 10.2834 1.25315 10.4481 1.4984 10.555C1.47422 10.6424 1.45721 10.7316 1.44752 10.8218C1.40004 11.2625 1.52726 11.6953 1.80484 12.0399C2.04479 12.3377 2.37364 12.5391 2.73851 12.6193C2.60473 13.1148 2.70092 13.6658 3.04663 14.0955C3.36316 14.4882 3.83432 14.7134 4.33896 14.7134C4.41668 14.7134 4.49401 14.7076 4.57048 14.6967C4.55667 15.0818 4.67529 15.4735 4.93551 15.7967C5.25204 16.1893 5.7232 16.4145 6.22846 16.4145C6.60526 16.4145 6.97415 16.2843 7.26877 16.0471L7.6735 15.7208L8.61039 16.7797C8.6243 16.7954 8.63893 16.8105 8.65423 16.8248C9.00181 17.1456 9.44801 17.3197 9.91795 17.3197C9.9429 17.3197 9.96847 17.3191 9.99404 17.3182C10.4914 17.2984 10.9516 17.0859 11.29 16.7198C11.434 16.5632 11.5482 16.3818 11.6273 16.1844C11.9785 16.469 12.4095 16.6136 12.8727 16.5965C13.3707 16.5764 13.8309 16.364 14.1681 15.9981C14.3355 15.817 14.4633 15.6089 14.5467 15.3845C15.2632 15.7178 16.141 15.5678 16.7028 14.9584C17.0882 14.5415 17.2464 13.9942 17.1837 13.4701C17.5429 13.3913 17.8832 13.2056 18.151 12.9152C18.8486 12.1601 18.8017 10.978 18.0694 10.3032L16.9328 9.13676L19.73 6.15869C19.9218 5.95471 19.954 5.64793 19.8085 5.4087ZM3.57257 8.42675L2.42086 9.35537C2.32712 9.43087 2.2285 9.44668 2.16275 9.44668C2.03674 9.44668 1.91987 9.39069 1.84074 9.29268C1.77134 9.20714 1.7403 9.0994 1.75187 8.99014C1.75737 8.9362 1.77362 8.8839 1.79965 8.83633C1.82568 8.78877 1.86097 8.74689 1.90344 8.71317L3.05577 7.78457C3.14951 7.70879 3.24752 7.69297 3.31387 7.69297C3.37552 7.69283 3.4364 7.70654 3.49204 7.73309C3.54767 7.75964 3.59663 7.79835 3.63529 7.84636C3.77832 8.02348 3.75033 8.2837 3.57257 8.42675ZM2.68688 10.9551C2.69238 10.9012 2.70863 10.8489 2.73466 10.8013C2.76069 10.7537 2.79598 10.7119 2.83845 10.6781L3.99078 9.74951C4.08452 9.67373 4.18253 9.65791 4.24888 9.65791C4.31052 9.65777 4.37141 9.67148 4.42704 9.69803C4.48267 9.72458 4.53162 9.76329 4.57028 9.8113C4.71333 9.98844 4.68533 10.2487 4.50758 10.3917L3.35587 11.3204C3.26213 11.3959 3.1635 11.4117 3.09715 11.4117C2.97175 11.4117 2.85488 11.356 2.77575 11.2577C2.70635 11.1721 2.67531 11.0644 2.68688 10.9551ZM4.01755 13.3133C3.87449 13.1359 3.90249 12.8756 4.07902 12.7332L5.23255 11.804C5.32567 11.7288 5.4243 11.713 5.49004 11.713C5.61605 11.713 5.73292 11.7687 5.81205 11.867C5.88145 11.9525 5.91249 12.0603 5.90093 12.1695C5.89542 12.2235 5.87917 12.2758 5.85314 12.3233C5.82711 12.3709 5.79182 12.4128 5.74935 12.4465L4.59703 13.3751C4.50329 13.4509 4.40527 13.4667 4.33892 13.4667C4.27728 13.4668 4.2164 13.4531 4.16078 13.4266C4.10516 13.4 4.05621 13.3613 4.01755 13.3133ZM6.48654 15.0765C6.3928 15.152 6.29418 15.1678 6.22843 15.1678C6.10243 15.1678 5.98494 15.1118 5.90642 15.0144C5.76337 14.837 5.79137 14.5767 5.9679 14.4343L7.12143 13.5054C7.21455 13.4299 7.31318 13.4141 7.37892 13.4141C7.50493 13.4141 7.6218 13.4701 7.70093 13.5678C7.73492 13.61 7.76027 13.6585 7.77552 13.7105C7.79077 13.7625 7.79562 13.817 7.7898 13.8709C7.77824 13.9802 7.72468 14.0785 7.63823 14.1479L6.48654 15.0765ZM17.2355 12.0694C17.0053 12.3177 16.617 12.3351 16.3662 12.1093L15.1609 10.9962C15.1597 10.9956 15.1591 10.9947 15.1579 10.9941V10.9938C15.1524 10.9889 15.1469 10.9837 15.1414 10.9789H15.1408C15.1408 10.9789 15.1408 10.9786 15.139 10.9774C15.139 10.978 15.1384 10.9767 15.1378 10.9758H15.1372C14.884 10.7637 14.5053 10.7862 14.2789 11.0328C14.0463 11.286 14.0628 11.6792 14.3148 11.9124L15.5158 13.0206C15.5188 13.0233 15.5219 13.0263 15.5249 13.0291L15.752 13.2391C16.0028 13.4704 16.0186 13.8624 15.7873 14.1129C15.5566 14.3628 15.1652 14.3795 14.9138 14.1476L14.0871 13.3846L14.0634 13.3627L13.2355 12.5981L13.2264 12.5902C12.9744 12.3573 12.5787 12.3722 12.3462 12.6255C12.1124 12.8784 12.1283 13.2726 12.3809 13.5063L13.2307 14.291L13.2313 14.2913C13.3445 14.402 13.4097 14.5494 13.4163 14.7082C13.423 14.8732 13.3646 15.0309 13.252 15.1523C13.14 15.2737 12.9878 15.344 12.8228 15.3507C12.6591 15.3611 12.5008 15.2996 12.3791 15.1873L11.1507 14.0529C11.1452 14.0481 11.1397 14.0429 11.1342 14.038L10.5973 13.5428C10.3447 13.3091 9.94965 13.3255 9.7165 13.5782C9.48337 13.8314 9.49918 14.2255 9.7524 14.459L10.2984 14.963C10.5535 15.2083 10.5906 15.6393 10.3739 15.8743C10.2619 15.9954 10.1091 16.066 9.94413 16.0724C9.78647 16.0785 9.63855 16.0271 9.51984 15.926L8.62853 14.9188C8.85225 14.6642 8.99263 14.3479 9.02921 14.004C9.07668 13.5632 8.94947 13.1307 8.67189 12.7859C8.30818 12.3343 7.7099 12.1283 7.14794 12.1981C7.16626 11.794 7.03855 11.402 6.78301 11.0848C6.54515 10.7896 6.20696 10.5995 5.8443 10.5226C5.98523 10.0227 5.8912 9.46411 5.54122 9.02914C5.37178 8.81907 5.15158 8.66252 4.90808 8.56194C5.05079 8.06097 4.95721 7.50038 4.60623 7.06418C4.0529 6.37784 2.96023 6.26036 2.27297 6.81368L2.22111 6.8555L1.4579 5.61418L5.20887 1.55123L6.62091 2.59363L4.89049 4.05249C4.68108 4.22902 4.61171 4.52151 4.71883 4.77352C4.74562 4.83622 5.3933 6.31117 7.07948 6.36657C8.63092 6.41198 9.77901 5.88024 10.4634 5.43254L14.442 8.36655L17.2002 11.1959C17.4509 11.4272 17.4662 11.8192 17.2355 12.0694ZM16.0622 8.24323L15.2991 7.46011C15.2758 7.43567 15.2503 7.41337 15.223 7.39346L11.3512 4.5381C11.3902 4.33426 11.3272 4.11562 11.164 3.96389C10.9133 3.72985 10.5188 3.74414 10.2832 3.99616C10.2716 4.00802 9.1534 5.18714 7.12088 5.12046C6.64121 5.10465 6.31615 4.86724 6.11649 4.64931L8.97994 2.2351L15.9523 1.45624L18.4974 5.65036L16.0622 8.24323Z" fill="#34364D"/>
<path d="M19.8085 5.4087L16.8112 0.469189C16.6852 0.261303 16.4453 0.143816 16.2091 0.17304L8.65362 1.01735C8.53116 1.03107 8.4155 1.08074 8.32125 1.16011L7.60085 1.76745L5.49979 0.216581C5.24473 0.028488 4.8874 0.0607344 4.67193 0.295413L0.221539 5.1156C0.129141 5.21536 0.0719723 5.34264 0.0587818 5.47797C0.0455913 5.6133 0.0771055 5.74923 0.148502 5.86495L1.24279 7.64425L1.12123 7.74226C0.77609 8.02014 0.559388 8.41612 0.512506 8.85684C0.465034 9.29756 0.592247 9.73035 0.86983 10.0749C1.03747 10.2834 1.25315 10.4481 1.4984 10.555C1.47422 10.6424 1.45721 10.7316 1.44752 10.8218C1.40004 11.2625 1.52726 11.6953 1.80484 12.0399C2.04479 12.3377 2.37364 12.5391 2.73851 12.6193C2.60473 13.1148 2.70092 13.6658 3.04663 14.0955C3.36316 14.4882 3.83432 14.7134 4.33896 14.7134C4.41668 14.7134 4.49401 14.7076 4.57048 14.6967C4.55667 15.0818 4.67529 15.4735 4.93551 15.7967C5.25204 16.1893 5.7232 16.4145 6.22846 16.4145C6.60526 16.4145 6.97415 16.2843 7.26877 16.0471L7.6735 15.7208L8.61039 16.7797C8.6243 16.7954 8.63893 16.8105 8.65423 16.8248C9.00181 17.1456 9.44801 17.3197 9.91795 17.3197C9.9429 17.3197 9.96847 17.3191 9.99404 17.3182C10.4914 17.2984 10.9516 17.0859 11.29 16.7198C11.434 16.5632 11.5482 16.3818 11.6273 16.1844C11.9785 16.469 12.4095 16.6136 12.8727 16.5965C13.3707 16.5764 13.8309 16.364 14.1681 15.9981C14.3355 15.817 14.4633 15.6089 14.5467 15.3845C15.2632 15.7178 16.141 15.5678 16.7028 14.9584C17.0882 14.5415 17.2464 13.9942 17.1837 13.4701C17.5429 13.3913 17.8832 13.2056 18.151 12.9152C18.8486 12.1601 18.8017 10.978 18.0694 10.3032L16.9328 9.13676L19.73 6.15869C19.9218 5.95471 19.954 5.64793 19.8085 5.4087ZM3.57257 8.42675L2.42086 9.35537C2.32712 9.43087 2.2285 9.44668 2.16275 9.44668C2.03674 9.44668 1.91987 9.39069 1.84074 9.29268C1.77134 9.20714 1.7403 9.0994 1.75187 8.99014C1.75737 8.9362 1.77362 8.8839 1.79965 8.83633C1.82568 8.78877 1.86097 8.74689 1.90344 8.71317L3.05577 7.78457C3.14951 7.70879 3.24752 7.69297 3.31387 7.69297C3.37552 7.69283 3.4364 7.70654 3.49204 7.73309C3.54767 7.75964 3.59663 7.79835 3.63529 7.84636C3.77832 8.02348 3.75033 8.2837 3.57257 8.42675ZM2.68688 10.9551C2.69238 10.9012 2.70863 10.8489 2.73466 10.8013C2.76069 10.7537 2.79598 10.7119 2.83845 10.6781L3.99078 9.74951C4.08452 9.67373 4.18253 9.65791 4.24888 9.65791C4.31052 9.65777 4.37141 9.67148 4.42704 9.69803C4.48267 9.72458 4.53162 9.76329 4.57028 9.8113C4.71333 9.98844 4.68533 10.2487 4.50758 10.3917L3.35587 11.3204C3.26213 11.3959 3.1635 11.4117 3.09715 11.4117C2.97175 11.4117 2.85488 11.356 2.77575 11.2577C2.70635 11.1721 2.67531 11.0644 2.68688 10.9551ZM4.01755 13.3133C3.87449 13.1359 3.90249 12.8756 4.07902 12.7332L5.23255 11.804C5.32567 11.7288 5.4243 11.713 5.49004 11.713C5.61605 11.713 5.73292 11.7687 5.81205 11.867C5.88145 11.9525 5.91249 12.0603 5.90093 12.1695C5.89542 12.2235 5.87917 12.2758 5.85314 12.3233C5.82711 12.3709 5.79182 12.4128 5.74935 12.4465L4.59703 13.3751C4.50329 13.4509 4.40527 13.4667 4.33892 13.4667C4.27728 13.4668 4.2164 13.4531 4.16078 13.4266C4.10516 13.4 4.05621 13.3613 4.01755 13.3133ZM6.48654 15.0765C6.3928 15.152 6.29418 15.1678 6.22843 15.1678C6.10243 15.1678 5.98494 15.1118 5.90642 15.0144C5.76337 14.837 5.79137 14.5767 5.9679 14.4343L7.12143 13.5054C7.21455 13.4299 7.31318 13.4141 7.37892 13.4141C7.50493 13.4141 7.6218 13.4701 7.70093 13.5678C7.73492 13.61 7.76027 13.6585 7.77552 13.7105C7.79077 13.7625 7.79562 13.817 7.7898 13.8709C7.77824 13.9802 7.72468 14.0785 7.63823 14.1479L6.48654 15.0765ZM17.2355 12.0694C17.0053 12.3177 16.617 12.3351 16.3662 12.1093L15.1609 10.9962C15.1597 10.9956 15.1591 10.9947 15.1579 10.9941V10.9938C15.1524 10.9889 15.1469 10.9837 15.1414 10.9789H15.1408C15.1408 10.9789 15.1408 10.9786 15.139 10.9774C15.139 10.978 15.1384 10.9767 15.1378 10.9758H15.1372C14.884 10.7637 14.5053 10.7862 14.2789 11.0328C14.0463 11.286 14.0628 11.6792 14.3148 11.9124L15.5158 13.0206C15.5188 13.0233 15.5219 13.0263 15.5249 13.0291L15.752 13.2391C16.0028 13.4704 16.0186 13.8624 15.7873 14.1129C15.5566 14.3628 15.1652 14.3795 14.9138 14.1476L14.0871 13.3846L14.0634 13.3627L13.2355 12.5981L13.2264 12.5902C12.9744 12.3573 12.5787 12.3722 12.3462 12.6255C12.1124 12.8784 12.1283 13.2726 12.3809 13.5063L13.2307 14.291L13.2313 14.2913C13.3445 14.402 13.4097 14.5494 13.4163 14.7082C13.423 14.8732 13.3646 15.0309 13.252 15.1523C13.14 15.2737 12.9878 15.344 12.8228 15.3507C12.6591 15.3611 12.5008 15.2996 12.3791 15.1873L11.1507 14.0529C11.1452 14.0481 11.1397 14.0429 11.1342 14.038L10.5973 13.5428C10.3447 13.3091 9.94965 13.3255 9.7165 13.5782C9.48337 13.8314 9.49918 14.2255 9.7524 14.459L10.2984 14.963C10.5535 15.2083 10.5906 15.6393 10.3739 15.8743C10.2619 15.9954 10.1091 16.066 9.94413 16.0724C9.78647 16.0785 9.63855 16.0271 9.51984 15.926L8.62853 14.9188C8.85225 14.6642 8.99263 14.3479 9.02921 14.004C9.07668 13.5632 8.94947 13.1307 8.67189 12.7859C8.30818 12.3343 7.7099 12.1283 7.14794 12.1981C7.16626 11.794 7.03855 11.402 6.78301 11.0848C6.54515 10.7896 6.20696 10.5995 5.8443 10.5226C5.98523 10.0227 5.8912 9.46411 5.54122 9.02914C5.37178 8.81907 5.15158 8.66252 4.90808 8.56194C5.05079 8.06097 4.95721 7.50038 4.60623 7.06418C4.0529 6.37784 2.96023 6.26036 2.27297 6.81368L2.22111 6.8555L1.4579 5.61418L5.20887 1.55123L6.62091 2.59363L4.89049 4.05249C4.68108 4.22902 4.61171 4.52151 4.71883 4.77352C4.74562 4.83622 5.3933 6.31117 7.07948 6.36657C8.63092 6.41198 9.77901 5.88024 10.4634 5.43254L14.442 8.36655L17.2002 11.1959C17.4509 11.4272 17.4662 11.8192 17.2355 12.0694ZM16.0622 8.24323L15.2991 7.46011C15.2758 7.43567 15.2503 7.41337 15.223 7.39346L11.3512 4.5381C11.3902 4.33426 11.3272 4.11562 11.164 3.96389C10.9133 3.72985 10.5188 3.74414 10.2832 3.99616C10.2716 4.00802 9.1534 5.18714 7.12088 5.12046C6.64121 5.10465 6.31615 4.86724 6.11649 4.64931L8.97994 2.2351L15.9523 1.45624L18.4974 5.65036L16.0622 8.24323Z" stroke="#34364D" stroke-width="0.6" mask="url(#path-1-outside-1)"/>
</g>
<defs>
<clipPath id="clip0">
<rect width="20" height="17.3864" fill="white"/>
</clipPath>
</defs>
</svg>
