<svg width="403" height="418" viewBox="0 0 403 418" fill="none" xmlns="http://www.w3.org/2000/svg">
<g clip-path="url(#clip0)">
<path d="M358.4 149.8C361.5 151.6 364.1 156 364.1 159.6V171.4C364.1 175 361.5 176.5 358.4 174.6L335 161.1C331.9 159.3 329.3 154.9 329.3 151.3V139.5C329.3 135.9 331.9 134.4 335 136.3L358.4 149.8Z" fill="#E8EAF9" stroke="#9CA5E5" stroke-width="2" stroke-miterlimit="10"/>
<path opacity="0.4" d="M175.9 342.5L288.6 291.5C290 290.9 291.4 290.2 292.7 289.4C297.8 286.4 303.9 282.3 304.9 279.4C307.6 271.6 297.6 254.3 286 255.7C273.4 257.2 197.3 309.1 168.2 325.8C162.8 328.9 162 336.5 166.6 340.7C169.1 342.9 172.7 343.6 175.9 342.5Z" fill="#C3C7E2"/>
<path d="M164.1 344.5L152.8 337.9C147.7 334.9 144.5 328.6 144.5 319.7L155.8 326.3C155.9 335.2 159 341.5 164.1 344.5Z" fill="#BCBED2"/>
<path d="M164.1 344.5L152.8 337.9C147.7 334.9 144.5 328.6 144.5 319.7L155.8 326.3C155.9 335.2 159 341.5 164.1 344.5Z" fill="#BCBED2" stroke="#9CA5E5" stroke-width="2" stroke-miterlimit="10"/>
<path d="M164.1 344.5L152.8 337.9C147.7 334.9 144.5 328.6 144.5 319.7L155.8 326.3C155.9 335.2 159 341.5 164.1 344.5Z" stroke="#9CA5E5" stroke-width="2" stroke-miterlimit="10"/>
<path d="M252 10.0999L263.3 16.6999C258.1 13.6999 251 14.0999 243.1 18.6999L231.8 12.0999C239.7 7.49992 246.8 7.09992 252 10.0999Z" fill="#BCBED2"/>
<path d="M252 10.0999L263.3 16.6999C258.1 13.6999 251 14.0999 243.1 18.6999L231.8 12.0999C239.7 7.49992 246.8 7.09992 252 10.0999Z" stroke="#9CA5E5" stroke-width="2" stroke-miterlimit="10"/>
<path d="M155.8 326.3L144.6 319.7L143.9 95.5L155.2 102L155.8 326.3Z" fill="#BCBED2" stroke="#9CA5E5" stroke-width="2" stroke-miterlimit="10"/>
<path d="M183.5 52.9999L172.2 46.4999L231.8 12.0999L243.1 18.5999L183.5 52.9999Z" fill="#BCBED2" stroke="#9CA5E5" stroke-width="2" stroke-miterlimit="10"/>
<path d="M155.2 102L143.9 95.3999C143.8 77.3999 156.5 55.4999 172.2 46.3999L183.5 52.9999C167.8 62.0999 155.2 83.9999 155.2 102Z" fill="#BCBED2"/>
<path d="M155.2 102L143.9 95.3999C143.8 77.3999 156.5 55.4999 172.2 46.3999L183.5 52.9999C167.8 62.0999 155.2 83.9999 155.2 102Z" stroke="#9CA5E5" stroke-width="2" stroke-miterlimit="10"/>
<path d="M243.1 18.6C258.8 9.59996 271.5 16.8 271.6 34.8L272.2 259.1C272.3 277.1 259.6 299 243.9 308.1L184.3 342.5C168.6 351.5 155.9 344.3 155.8 326.3L155.2 102C155.1 84 167.8 62.1 183.5 53L243.1 18.6Z" fill="#BCBED2" stroke="#9CA5E5" stroke-width="2" stroke-miterlimit="10"/>
<path d="M250 28.4C256.3 24.8 261.4 27.7 261.4 34.9L262 245.6C262 252.8 257 261.6 250.7 265.2L178.2 307C171.9 310.6 166.8 307.7 166.8 300.5L166.2 89.8C166.2 82.6 171.2 73.8 177.5 70.2L250 28.4Z" fill="#BCBED2" stroke="#9CA5E5" stroke-width="2" stroke-miterlimit="10"/>
<path d="M250.1 50.8999C251.7 49.9999 252.9 50.6999 252.9 52.4999L253 94.0999C253 95.8999 251.7 98.0999 250.2 98.9999L177.5 141C175.9 141.9 174.7 141.2 174.7 139.4L174.6 97.7999C174.6 95.9999 175.9 93.7999 177.4 92.8999L250.1 50.8999Z" fill="#E8EAF9" stroke="#9CA5E5" stroke-width="2" stroke-miterlimit="10"/>
<path d="M250.1 112.9C251.7 112 252.9 112.7 252.9 114.5L253 156.1C253 157.9 251.7 160.1 250.2 161L177.5 203C175.9 203.9 174.7 203.2 174.7 201.4L174.6 159.8C174.6 158 175.9 155.8 177.4 154.9L250.1 112.9Z" fill="#E8EAF9" stroke="#9CA5E5" stroke-width="2" stroke-miterlimit="10"/>
<path d="M250.1 171.9C251.7 171 252.9 171.7 252.9 173.5L253 215.1C253 216.9 251.7 219.1 250.2 220L177.5 262C175.9 262.9 174.7 262.2 174.7 260.4L174.6 218.8C174.6 217 175.9 214.8 177.4 213.9L250.1 171.9Z" fill="#E8EAF9" stroke="#9CA5E5" stroke-width="2" stroke-miterlimit="10"/>
<path d="M193.7 267.4C195.3 266.5 196.5 267.2 196.6 269V282C196.6 283.8 195.3 286 193.8 286.9L182.4 293.5C180.8 294.4 179.6 293.7 179.6 291.9V278.9C179.6 277.1 180.9 274.9 182.4 274L193.7 267.4Z" fill="white" stroke="#9CA5E5" stroke-width="2" stroke-miterlimit="10"/>
<path d="M223.7 249.4C225.3 248.5 226.5 249.2 226.5 251V264C226.5 265.8 225.2 268 223.7 268.9L212.3 275.5C210.7 276.4 209.5 275.7 209.4 273.9V260.9C209.4 259.1 210.7 256.9 212.2 256L223.7 249.4Z" fill="white" stroke="#9CA5E5" stroke-width="2" stroke-miterlimit="10"/>
<path d="M251.7 232.4C253.3 231.5 254.5 232.2 254.5 234V247C254.5 248.8 253.2 251 251.7 251.9L240.3 258.5C238.7 259.4 237.5 258.7 237.4 256.9V243.9C237.4 242.1 238.7 239.9 240.2 239L251.7 232.4Z" fill="#FFFF00" stroke="#9CA5E5" stroke-width="2" stroke-miterlimit="10"/>
<path d="M221 291.1C226.5 287.9 230.9 290.5 231 296.8C231 303.1 226.6 310.8 221.1 313.9C215.6 317.1 211.2 314.5 211.1 308.2C211.1 301.9 215.5 294.2 221 291.1Z" fill="#E8EAF9" stroke="#9CA5E5" stroke-width="2" stroke-miterlimit="10"/>
<path d="M221 289.4C227.3 285.8 232.4 288.7 232.4 295.9C232.4 303.1 227.3 311.9 221.1 315.5C214.8 319.1 209.7 316.2 209.7 309C209.7 301.8 214.8 293 221 289.4ZM221.1 313.9C226.6 310.7 231 303.1 231 296.8C231 290.5 226.5 288 221 291.1C215.5 294.3 211.1 302 211.1 308.2C211.1 314.5 215.6 317 221.1 313.9Z" fill="#E8EAF9" stroke="#9CA5E5" stroke-width="2" stroke-miterlimit="10"/>
<path d="M245.1 66.6999C246.4 65.8999 247.5 66.5999 247.6 68.0999C247.6 69.5999 246.5 71.4999 245.2 72.2999L183.3 108C182 108.8 180.9 108.1 180.8 106.6C180.8 105.1 181.9 103.2 183.2 102.4L245.1 66.6999Z" fill="#BCBED2" stroke="#9CA5E5" stroke-width="2" stroke-miterlimit="10"/>
<path d="M223.1 93.8C224 93.3 224.7 93.7 224.7 94.7C224.7 95.7 224 97 223.1 97.5L182.3 121.1C181.4 121.6 180.7 121.2 180.7 120.2C180.7 119.2 181.4 117.9 182.3 117.4L223.1 93.8Z" fill="#BCBED2" stroke="#9CA5E5" stroke-width="2" stroke-miterlimit="10"/>
<path d="M192.5 122.8C194 122 195.2 122.6 195.2 124.3C195.2 126 194 128 192.5 128.9L183.6 134C182.1 134.8 180.9 134.2 180.9 132.5C180.9 130.8 182.1 128.8 183.6 127.9L192.5 122.8Z" fill="#BCBED2" stroke="#9CA5E5" stroke-width="2" stroke-miterlimit="10"/>
<g opacity="0.4">
<path opacity="0.4" d="M362.5 308.6C367 311.2 367 315.4 362.6 318L338.4 332.1C333.9 334.7 326.6 334.7 322.1 332.1L297.7 318C293.2 315.4 293.2 311.2 297.6 308.6L321.8 294.5C326.3 291.9 333.6 291.9 338.1 294.5L362.5 308.6Z" fill="#C3C7E2"/>
</g>
<g opacity="0.4">
<path opacity="0.4" d="M227.5 399.5C230.6 401.3 230.7 404.3 227.5 406.1L210.6 415.9C207.5 417.7 202.4 417.7 199.3 415.9L182.3 406.1C179.2 404.3 179.1 401.3 182.3 399.5L199.2 389.7C202.3 387.9 207.4 387.9 210.5 389.7L227.5 399.5Z" fill="#C3C7E2"/>
</g>
<path d="M323.2 327V218" stroke="#9CA5E5" stroke-width="2" stroke-miterlimit="10"/>
<path d="M346.2 204V314" stroke="#9CA5E5" stroke-width="2" stroke-miterlimit="10"/>
<path d="M299.2 314V204" stroke="#9CA5E5" stroke-width="2" stroke-miterlimit="10"/>
<path d="M299.2 314L323.2 300L346.2 314" stroke="#9CA5E5" stroke-width="2" stroke-miterlimit="10"/>
<path d="M299.2 287L323.2 327L346.2 287" stroke="#9CA5E5" stroke-width="2" stroke-miterlimit="10"/>
<path d="M299.2 287L323.2 273L346.2 287" stroke="#9CA5E5" stroke-width="2" stroke-miterlimit="10"/>
<path d="M299.2 260L323.2 300L346.2 260" stroke="#9CA5E5" stroke-width="2" stroke-miterlimit="10"/>
<path d="M299.2 260L323.2 246L346.2 260" stroke="#9CA5E5" stroke-width="2" stroke-miterlimit="10"/>
<path d="M299.2 233L323.2 273L346.2 233" stroke="#9CA5E5" stroke-width="2" stroke-miterlimit="10"/>
<path d="M299.2 233L323.2 219L346.2 233" stroke="#9CA5E5" stroke-width="2" stroke-miterlimit="10"/>
<path d="M299.2 206L323.2 246L346.2 206" stroke="#9CA5E5" stroke-width="2" stroke-miterlimit="10"/>
<path d="M299.7 286.5L322.7 299.5L346.7 286.5" stroke="#9CA5E5" stroke-width="2" stroke-miterlimit="10"/>
<path d="M299.7 259.5L322.7 272.5L346.7 259.5" stroke="#9CA5E5" stroke-width="2" stroke-miterlimit="10"/>
<path d="M299.7 232.5L322.7 245.5L346.7 232.5" stroke="#9CA5E5" stroke-width="2" stroke-miterlimit="10"/>
<path d="M353.8 200.8V207.3C353.8 208.5 353 209.7 351.5 210.6V204.1C353.1 203.2 353.8 202 353.8 200.8Z" fill="#BCBED2"/>
<path d="M353.8 200.8V207.3C353.8 207.3 353.8 207.3 353.8 207.4V200.8Z" fill="#BCBED2" stroke="#9CA5E5" stroke-width="2" stroke-miterlimit="10"/>
<path d="M353.8 200.9V207.4C353.8 207.6 353.8 207.7 353.7 207.9V201.4C353.8 201.2 353.8 201 353.8 200.9Z" fill="#BCBED2" stroke="#9CA5E5" stroke-width="2" stroke-miterlimit="10"/>
<path d="M353.8 201.3V207.8C353.8 208 353.7 208.1 353.7 208.3V201.8C353.7 201.6 353.7 201.5 353.8 201.3Z" fill="#BCBED2" stroke="#9CA5E5" stroke-width="2" stroke-miterlimit="10"/>
<path d="M353.7 201.8V208.3C353.6 208.5 353.6 208.6 353.5 208.8V202.3C353.5 202.1 353.6 201.9 353.7 201.8Z" fill="#BCBED2" stroke="#9CA5E5" stroke-width="2" stroke-miterlimit="10"/>
<path d="M353.4 202.2V208.7C353.3 208.9 353.2 209 353.1 209.2V202.7C353.2 202.6 353.3 202.4 353.4 202.2Z" fill="#BCBED2" stroke="#9CA5E5" stroke-width="2" stroke-miterlimit="10"/>
<path d="M353.1 202.7V209.2C353 209.4 352.8 209.6 352.6 209.7V203.2C352.8 203.1 353 202.9 353.1 202.7Z" fill="#BCBED2" stroke="#9CA5E5" stroke-width="2" stroke-miterlimit="10"/>
<path d="M352.6 203.2V209.7C352.3 210 352 210.2 351.6 210.5V204C352 203.8 352.3 203.5 352.6 203.2Z" fill="#BCBED2" stroke="#9CA5E5" stroke-width="2" stroke-miterlimit="10"/>
<path d="M351.6 204V210.5C351.6 210.5 351.5 210.5 351.5 210.6L351.6 204C351.5 204 351.6 204 351.6 204Z" fill="#BCBED2"/>
<path d="M351.6 204V210.5C351.6 210.5 351.5 210.5 351.5 210.6L351.6 204ZM351.6 204C351.5 204 351.6 204 351.6 204Z" stroke="#9CA5E5" stroke-width="2" stroke-miterlimit="10"/>
<path d="M353.8 200.8V207.3C353.8 208.5 353 209.7 351.5 210.6V204.1C353.1 203.2 353.8 202 353.8 200.8Z" stroke="#9CA5E5" stroke-width="2" stroke-miterlimit="10"/>
<path d="M292.6 207.3V200.8C292.6 202 293.4 203.2 295 204.1V210.6C293.4 209.7 292.6 208.5 292.6 207.3Z" fill="#BCBED2"/>
<path d="M294.9 204.1V210.6C293.3 209.7 292.5 208.5 292.5 207.3V200.8C292.6 202 293.4 203.1 294.9 204.1Z" fill="#BCBED2" stroke="#9CA5E5" stroke-width="2" stroke-miterlimit="10"/>
<path d="M292.6 207.3V200.8C292.6 202 293.4 203.2 295 204.1V210.6C293.4 209.7 292.6 208.5 292.6 207.3Z" stroke="#9CA5E5" stroke-width="2" stroke-miterlimit="10"/>
<path d="M351.5 204.1V210.6L328.9 223.7L329 217.2L351.5 204.1Z" fill="#BCBED2" stroke="#9CA5E5" stroke-width="2" stroke-miterlimit="10"/>
<path d="M317.6 217.2V223.7L294.9 210.6V204.1L317.6 217.2Z" fill="#BCBED2" stroke="#9CA5E5" stroke-width="2" stroke-miterlimit="10"/>
<path d="M329 217.2V223.7C325.9 225.5 320.8 225.5 317.7 223.7V217.2C320.8 219 325.8 219 329 217.2Z" fill="#BCBED2"/>
<path d="M329 217.2V223.7C325.9 225.5 320.8 225.5 317.7 223.7V217.2C320.8 219 325.8 219 329 217.2Z" stroke="#9CA5E5" stroke-width="2" stroke-miterlimit="10"/>
<path d="M351.5 197.5C354.6 199.3 354.7 202.2 351.5 204.1L329 217.2C325.9 219 320.8 219 317.7 217.2L295 204.1C291.9 202.3 291.8 199.4 295 197.5L317.5 184.4C320.6 182.6 325.7 182.6 328.8 184.4L351.5 197.5Z" fill="#E8EAF9" stroke="#9CA5E5" stroke-width="2" stroke-miterlimit="10"/>
<path d="M198.7 413.2V344.5" stroke="#9CA5E5" stroke-width="2" stroke-miterlimit="10"/>
<path d="M213.2 335.7V405" stroke="#9CA5E5" stroke-width="2" stroke-miterlimit="10"/>
<path d="M183.6 405V335.7" stroke="#9CA5E5" stroke-width="2" stroke-miterlimit="10"/>
<path d="M183.6 405L198.7 396.2L213.2 405" stroke="#9CA5E5" stroke-width="2" stroke-miterlimit="10"/>
<path d="M183.6 388L198.7 413.2L213.2 388" stroke="#9CA5E5" stroke-width="2" stroke-miterlimit="10"/>
<path d="M183.6 388L198.7 379.2L213.2 388" stroke="#9CA5E5" stroke-width="2" stroke-miterlimit="10"/>
<path d="M183.6 371L198.7 396.2L213.2 371" stroke="#9CA5E5" stroke-width="2" stroke-miterlimit="10"/>
<path d="M183.6 371L198.7 362.1L213.2 371" stroke="#9CA5E5" stroke-width="2" stroke-miterlimit="10"/>
<path d="M183.6 353.9L198.7 379.2L213.2 353.9" stroke="#9CA5E5" stroke-width="2" stroke-miterlimit="10"/>
<path d="M183.6 353.9L198.7 345.1L213.2 353.9" stroke="#9CA5E5" stroke-width="2" stroke-miterlimit="10"/>
<path d="M183.6 336.9L198.7 362.1L213.2 336.9" stroke="#9CA5E5" stroke-width="2" stroke-miterlimit="10"/>
<path d="M183.9 387.7L198.4 395.9L213.5 387.7" stroke="#9CA5E5" stroke-width="2" stroke-miterlimit="10"/>
<path d="M183.9 370.7L198.4 378.9L213.5 370.7" stroke="#9CA5E5" stroke-width="2" stroke-miterlimit="10"/>
<path d="M183.9 353.6L198.4 361.8L213.5 353.6" stroke="#9CA5E5" stroke-width="2" stroke-miterlimit="10"/>
<path d="M215.9 331.6V339.8C215.9 341.3 214.9 342.8 213 343.9V335.7C215 334.5 215.9 333.1 215.9 331.6Z" fill="#BCBED2"/>
<path d="M215.9 331.6V339.8V339.9V331.6Z" fill="#BCBED2" stroke="#9CA5E5" stroke-width="2" stroke-miterlimit="10"/>
<path d="M215.9 331.7V339.9C215.9 340.1 215.9 340.3 215.8 340.5V332.3C215.9 332 215.9 331.8 215.9 331.7Z" fill="#BCBED2" stroke="#9CA5E5" stroke-width="2" stroke-miterlimit="10"/>
<path d="M215.9 332.2V340.4C215.9 340.6 215.8 340.8 215.7 341V332.8C215.8 332.6 215.8 332.4 215.9 332.2Z" fill="#BCBED2" stroke="#9CA5E5" stroke-width="2" stroke-miterlimit="10"/>
<path d="M215.7 332.8V341C215.6 341.2 215.5 341.4 215.4 341.6V333.4C215.6 333.2 215.6 333 215.7 332.8Z" fill="#BCBED2" stroke="#9CA5E5" stroke-width="2" stroke-miterlimit="10"/>
<path d="M215.4 333.4V341.6C215.3 341.8 215.1 342 215 342.2V334C215.2 333.8 215.3 333.6 215.4 333.4Z" fill="#BCBED2" stroke="#9CA5E5" stroke-width="2" stroke-miterlimit="10"/>
<path d="M215 334V342.2C214.8 342.4 214.6 342.7 214.4 342.9V334.7C214.7 334.4 214.9 334.2 215 334Z" fill="#BCBED2" stroke="#9CA5E5" stroke-width="2" stroke-miterlimit="10"/>
<path d="M214.4 334.6V342.8C214 343.1 213.6 343.5 213.1 343.7V335.5C213.6 335.3 214.1 335 214.4 334.6Z" fill="#BCBED2" stroke="#9CA5E5" stroke-width="2" stroke-miterlimit="10"/>
<path d="M213.1 335.6V343.8C213.1 343.8 213 343.8 213 343.9V335.7C213.1 335.6 213.1 335.6 213.1 335.6Z" fill="#BCBED2" stroke="#9CA5E5" stroke-width="2" stroke-miterlimit="10"/>
<path d="M215.9 331.6V339.8C215.9 341.3 214.9 342.8 213 343.9V335.7C215 334.5 215.9 333.1 215.9 331.6Z" stroke="#9CA5E5" stroke-width="2" stroke-miterlimit="10"/>
<path d="M181.5 339.7V331.5C181.5 333 182.5 334.5 184.5 335.7V343.9C182.5 342.7 181.5 341.2 181.5 339.7Z" fill="#BCBED2"/>
<path d="M184.5 335.7V343.9C182.5 342.8 181.5 341.2 181.5 339.7V331.5C181.5 333 182.5 334.5 184.5 335.7Z" fill="#BCBED2" stroke="#9CA5E5" stroke-width="2" stroke-miterlimit="10"/>
<path d="M181.5 339.7V331.5C181.5 333 182.5 334.5 184.5 335.7V343.9C182.5 342.7 181.5 341.2 181.5 339.7Z" stroke="#9CA5E5" stroke-width="2" stroke-miterlimit="10"/>
<path d="M213 335.7V343.9L205.9 348V339.8L213 335.7Z" fill="#BCBED2" stroke="#9CA5E5" stroke-width="2" stroke-miterlimit="10"/>
<path d="M191.6 339.8V348L184.4 343.9L184.5 335.7L191.6 339.8Z" fill="#BCBED2" stroke="#9CA5E5" stroke-width="2" stroke-miterlimit="10"/>
<path d="M205.9 339.8V348C202 350.3 195.6 350.3 191.6 348V339.8C195.6 342.1 202 342.1 205.9 339.8Z" fill="#BCBED2"/>
<path d="M205.9 339.8V348C202 350.3 195.6 350.3 191.6 348V339.8C195.6 342.1 202 342.1 205.9 339.8Z" stroke="#9CA5E5" stroke-width="2" stroke-miterlimit="10"/>
<path d="M213 327.4C217 329.7 217 333.4 213 335.7L205.9 339.8C202 342.1 195.6 342.1 191.6 339.8L184.4 335.7C180.4 333.4 180.4 329.7 184.4 327.4L191.5 323.3C195.4 321 201.8 321 205.8 323.3L213 327.4Z" fill="#E8EAF9" stroke="#9CA5E5" stroke-width="2" stroke-miterlimit="10"/>
<path d="M226.7 278.5L242.8 335.4" stroke="#9CA5E5" stroke-width="2" stroke-miterlimit="10"/>
<path d="M236.5 272.9L251.9 329.2" stroke="#9CA5E5" stroke-width="2" stroke-miterlimit="10"/>
<path d="M228.1 283.5L237.5 276.7" stroke="#9CA5E5" stroke-width="2" stroke-miterlimit="10"/>
<path d="M230 290.2L239.4 283.5" stroke="#9CA5E5" stroke-width="2" stroke-miterlimit="10"/>
<path d="M231.8 297.8L241.2 291.1" stroke="#9CA5E5" stroke-width="2" stroke-miterlimit="10"/>
<path d="M234.7 304.4L244.2 297.7" stroke="#9CA5E5" stroke-width="2" stroke-miterlimit="10"/>
<path d="M236.5 312L246 305.3" stroke="#9CA5E5" stroke-width="2" stroke-miterlimit="10"/>
<path d="M238 319.7L247.5 313" stroke="#9CA5E5" stroke-width="2" stroke-miterlimit="10"/>
<path d="M336.3 146.6C337.1 147.1 337.6 147.7 337.8 148.5L336.8 148C336.8 147.7 336.6 147.5 336.3 147.3C336 147.2 335.9 147.2 335.9 147.4C335.9 147.6 336 147.8 336.3 148C336.4 148.1 336.5 148.2 336.7 148.4C336.8 148.5 336.9 148.6 337 148.7C337.6 149.2 337.9 149.8 337.9 150.3C337.9 151 337.4 151.1 336.4 150.6C336.3 150.6 336.2 150.5 336.2 150.5C335.3 150 334.8 149.3 334.7 148.5L335.7 149C335.8 149.4 336 149.7 336.4 149.9C336.8 150.1 337 150.1 337 149.8C337 149.6 336.8 149.4 336.3 149C336.2 148.9 336.1 148.8 336 148.7C335.8 148.6 335.7 148.5 335.6 148.4C335.1 147.9 334.9 147.5 334.8 147C334.8 146.3 335.3 146.1 336.2 146.7C336.3 146.5 336.3 146.6 336.3 146.6Z" fill="#2E3192"/>
<path d="M338.4 151.6V147.9L339.4 148.5V152.2L338.4 151.6Z" fill="#2E3192"/>
<path d="M338.4 146.4L339.5 147V148L338.4 147.4V146.4Z" fill="#2E3192"/>
<path d="M342.1 149.9C342.9 150.3 343.3 151.1 343.2 152.1V154.4L342.2 153.8V151.7C342.2 151.2 342 150.8 341.6 150.6C341.2 150.4 341 150.6 341 151.1V153.1L340 152.5V148.8L341 149.4V150C341.3 149.7 341.6 149.7 342.1 149.9Z" fill="#2E3192"/>
<path d="M345.6 150.5C346.5 151.1 347 151.8 347.1 152.7C347.1 153.4 346.8 153.6 346.1 153.4C346.8 153.9 347.1 154.5 347.2 155.3C347.1 156.2 346.6 156.4 345.5 155.8C345.5 155.8 345.4 155.8 345.4 155.7C344.6 155.2 344 154.5 343.8 153.5L344.8 153.8C344.9 154.4 345.1 154.8 345.6 155C346 155.2 346.2 155.1 346.3 154.6C346.3 154.1 346 153.7 345.3 153.3L344.9 153.1V152.2L345.3 152.4C345.9 152.7 346.2 152.7 346.2 152.2C346.2 151.8 346 151.4 345.6 151.2C345.2 151 345 151.1 344.9 151.5L343.9 150.7C344 150 344.6 149.9 345.6 150.5Z" fill="#2E3192"/>
<path d="M350.9 158C350.9 158.3 351 158.6 351.1 158.8L350.2 158.3C350.1 158.1 350.1 157.9 350.1 157.7C349.8 157.9 349.3 157.9 348.7 157.5C348 157.1 347.7 156.5 347.7 155.9C347.7 155.2 348.1 155 348.9 155.4C349.5 155.6 349.9 155.7 350.1 155.7C350.1 155.4 349.9 155.1 349.5 154.9C349.5 154.9 349.5 154.9 349.4 154.9C349 154.7 348.8 154.7 348.7 155L347.8 154.3C348 153.7 348.5 153.6 349.4 154.1C349.4 154.1 349.4 154.1 349.5 154.1L349.6 154.2C350.6 154.8 351.1 155.6 351.1 156.7L350.9 158ZM350 156.6V156.4C349.8 156.4 349.5 156.4 349.1 156.2C348.7 156.1 348.4 156.1 348.4 156.3C348.4 156.5 348.6 156.8 348.9 157C349.6 157.3 349.9 157.2 350 156.6Z" fill="#2E3192"/>
<path d="M351.4 157.7V156.9L354.5 158.8V159.5L351.4 157.7Z" fill="#2E3192"/>
<path d="M351.4 155.3L354.5 157.1V157.9L351.4 156.1V155.3Z" fill="#2E3192"/>
<path d="M356.8 156.9C357.7 157.5 358.2 158.2 358.3 159.1C358.3 159.8 358 160 357.3 159.8C358 160.3 358.3 160.9 358.4 161.7C358.3 162.6 357.8 162.8 356.7 162.2C356.7 162.2 356.6 162.2 356.6 162.1C355.8 161.6 355.2 160.9 355 159.9L356 160.2C356.1 160.8 356.3 161.2 356.8 161.4C357.2 161.6 357.4 161.5 357.5 161C357.5 160.5 357.2 160.1 356.5 159.7L356.1 159.5V158.6L356.5 158.8C357.1 159.1 357.4 159.1 357.4 158.6C357.4 158.2 357.2 157.8 356.8 157.6C356.4 157.4 356.2 157.5 356.1 157.9L355.1 157.1C355.2 156.5 355.8 156.4 356.8 156.9Z" fill="#2E3192"/>
<path d="M360.3 160.4C361.1 160.9 361.6 161.5 361.8 162.3L360.8 161.8C360.8 161.5 360.6 161.3 360.3 161.1C360 161 359.9 161 359.9 161.2C359.9 161.4 360 161.6 360.3 161.8C360.4 161.9 360.5 162 360.7 162.2C360.8 162.3 360.9 162.4 361 162.5C361.6 163 361.9 163.6 361.9 164.1C361.9 164.8 361.4 164.9 360.4 164.4C360.3 164.4 360.2 164.3 360.2 164.3C359.3 163.8 358.8 163.1 358.7 162.3L359.7 162.8C359.8 163.2 360 163.5 360.4 163.7C360.8 163.9 361 163.9 361 163.6C361 163.4 360.8 163.2 360.3 162.8C360.2 162.7 360.1 162.6 360 162.5C359.8 162.4 359.7 162.3 359.6 162.2C359.1 161.7 358.9 161.3 358.8 160.8C358.8 160.1 359.3 159.9 360.2 160.5C360.3 160.4 360.3 160.4 360.3 160.4Z" fill="#2E3192"/>
<path d="M362.5 160.3L363.5 160.9V161.8L362.4 161.2L362.5 160.3Z" fill="#2E3192"/>
<path d="M362.4 165.5V161.8L363.5 162.4V166L362.4 165.5Z" fill="#2E3192"/>
<path d="M366.1 163.8C366.9 164.2 367.3 165 367.2 166V168.3L366.2 167.7V165.6C366.2 165.1 366 164.7 365.6 164.5C365.2 164.3 365 164.5 365 165V167L364 166.4V162.7L365 163.3V163.9C365.3 163.6 365.7 163.6 366.1 163.8Z" fill="#2E3192"/>
<path d="M371.1 169.7C371.1 170 371.2 170.3 371.3 170.5L370.4 170C370.3 169.8 370.3 169.6 370.3 169.4C370 169.6 369.5 169.6 368.9 169.2C368.2 168.8 367.9 168.2 367.9 167.6C367.9 166.9 368.3 166.7 369.1 167.1C369.7 167.3 370.1 167.4 370.3 167.4C370.3 167.1 370.1 166.8 369.7 166.6C369.7 166.6 369.7 166.6 369.6 166.6C369.2 166.4 369 166.4 368.9 166.7L368 166C368.2 165.4 368.7 165.3 369.6 165.8C369.6 165.8 369.6 165.8 369.7 165.8L369.8 165.9C370.9 166.5 371.3 167.3 371.3 168.4L371.1 169.7ZM370.2 168.2V168C370 168 369.7 168 369.3 167.8C368.9 167.7 368.6 167.7 368.6 167.9C368.6 168.1 368.8 168.4 369.1 168.6C369.8 169 370.1 168.8 370.2 168.2Z" fill="#2E3192"/>
<path d="M374.4 169.4V170.2L371.5 168.5V167.7L374.4 169.4Z" fill="#2E3192"/>
<path d="M377.7 172.4L378.2 172.7V173.5L377.7 173.2V174.3L376.8 173.8V172.7L374.6 171.4V170.7L376.7 168.5L377.7 169.1V172.4ZM376.8 170.2C376.8 170 376.8 169.8 376.8 169.7C376.8 169.8 376.7 169.9 376.6 170L375.5 171.2L376.8 171.9V170.2Z" fill="#2E3192"/>
<path d="M380.3 170.2C379.7 170.8 379.4 171.7 379.4 172.8C379.4 173.9 379.7 175.1 380.3 176.4L379.5 176C378.8 174.8 378.5 173.6 378.5 172.4C378.5 171.2 378.8 170.4 379.5 169.8L380.3 170.2Z" fill="#2E3192"/>
<path d="M382.3 173.1C383.1 173.6 383.6 174.2 383.8 175L382.8 174.5C382.8 174.2 382.6 174 382.3 173.8C382 173.7 381.9 173.7 381.9 173.9C381.9 174.1 382 174.3 382.3 174.5C382.4 174.6 382.5 174.7 382.7 174.9C382.8 175 382.9 175.1 383 175.2C383.6 175.7 383.9 176.3 383.9 176.8C383.9 177.5 383.4 177.6 382.4 177.1C382.3 177.1 382.2 177 382.2 177C381.3 176.5 380.8 175.8 380.7 175L381.7 175.5C381.8 175.9 382 176.2 382.4 176.4C382.8 176.6 383 176.6 383 176.3C383 176.1 382.8 175.9 382.3 175.5C382.2 175.4 382.1 175.3 382 175.2C381.8 175.1 381.7 175 381.6 174.9C381.1 174.4 380.9 174 380.8 173.5C380.8 172.8 381.3 172.6 382.2 173.2C382.2 173.1 382.2 173.1 382.3 173.1Z" fill="#2E3192"/>
<path d="M384.4 178.1V174.4L385.4 175V178.7L384.4 178.1Z" fill="#2E3192"/>
<path d="M384.4 173L385.4 173.5V174.5L384.4 173.9V173Z" fill="#2E3192"/>
<path d="M388.1 176.5C388.9 176.9 389.3 177.7 389.2 178.7V181L388.2 180.4V178.3C388.2 177.8 388 177.4 387.6 177.2C387.2 177 387 177.2 387 177.7V179.7L386 179.1V175.4L387 176V176.6C387.3 176.2 387.6 176.2 388.1 176.5Z" fill="#2E3192"/>
<path d="M393 182.3C393 182.6 393.1 182.9 393.2 183.1L392.3 182.6C392.2 182.4 392.2 182.2 392.2 182C391.9 182.2 391.4 182.2 390.8 181.8C390.1 181.4 389.8 180.8 389.8 180.2C389.8 179.5 390.2 179.3 391 179.7C391.6 179.9 392 180 392.2 180C392.2 179.7 392 179.4 391.6 179.2C391.6 179.2 391.6 179.2 391.5 179.2C391.1 179 390.9 179 390.8 179.3L389.9 178.6C390.1 178 390.6 177.9 391.5 178.4C391.5 178.4 391.5 178.4 391.6 178.4L391.7 178.5C392.7 179.1 393.2 179.9 393.2 181L393 182.3ZM392.1 180.9V180.7C391.9 180.7 391.6 180.7 391.2 180.5C390.8 180.4 390.5 180.4 390.5 180.6C390.5 180.8 390.7 181.1 391 181.3C391.7 181.6 392.1 181.5 392.1 180.9Z" fill="#2E3192"/>
<path d="M394.3 178.3C395 179.6 395.3 180.8 395.3 182C395.3 183.2 395 184 394.3 184.5L393.5 184C394.1 183.5 394.4 182.6 394.4 181.5C394.4 180.4 394.1 179.1 393.5 177.8L394.3 178.3Z" fill="#2E3192"/>
<path d="M397.3 180.3L398.6 184L397.8 183.5L397 181.1L396.3 182.6L395.4 182.1L396.8 180L397.3 180.3Z" fill="#2E3192"/>
<path d="M400.7 182.3C401.6 182.9 402.1 183.6 402.2 184.5C402.2 185.2 401.9 185.4 401.2 185.2C401.9 185.7 402.2 186.3 402.3 187.1C402.2 188 401.7 188.2 400.6 187.6C400.6 187.6 400.5 187.6 400.5 187.5C399.7 187 399.1 186.3 398.9 185.3L399.9 185.6C400 186.2 400.2 186.6 400.7 186.8C401.1 187 401.3 186.9 401.4 186.4C401.4 185.9 401.1 185.5 400.4 185.1L400 184.9V184L400.4 184.2C401 184.5 401.3 184.5 401.3 184C401.3 183.6 401.1 183.2 400.7 183C400.3 182.8 400.1 182.9 400 183.3L399 182.5C399.1 181.8 399.7 181.7 400.7 182.3Z" fill="#2E3192"/>
<path d="M325.404 207.898C333.131 205.594 338.449 200.551 337.281 196.635C336.113 192.718 328.903 191.411 321.176 193.715C313.449 196.018 308.131 201.061 309.299 204.977C310.466 208.894 317.677 210.201 325.404 207.898Z" fill="#C3C7E2"/>
<path d="M311.8 202.5C311.8 202.5 311.4 204.8 312.5 204.5C313.6 204.2 315.4 202.1 315.4 201.5C315.4 200.8 315.2 200.3 314 201C312.7 201.7 311.8 202.5 311.8 202.5Z" fill="#181828"/>
<path d="M322 205.1C322 205.1 321.4 207.1 322.8 207.1C324.3 207.1 324.7 206.6 325.9 206.8C327 207 328.1 205.2 326.6 205.2C325.2 205 322.1 204.6 322 205.1Z" fill="#181828"/>
<path d="M316.6 174.8C316.6 174.8 315.4 180.3 315.3 186.4C313 191.8 311.8 197.9 311.8 202.5C312.1 203.7 313.4 202.8 313.4 202.8C313.4 202.8 315.6 193.6 316.5 192.5C317.4 191.4 320.9 183 320.9 183C320.9 183 323 188.7 322 192.7C321 196.7 322 205.1 322 205.1C322 205.1 322.6 206.4 324.4 205.1C324.3 201.1 324.3 197.4 325.5 193.2C326.7 189 327.5 178.7 326.1 176C324.6 173.3 316.6 174.8 316.6 174.8Z" fill="#3E4155"/>
<path d="M332.4 155.4L328.8 160.2L332.3 162L336.2 157.4L332.4 155.4Z" fill="white" stroke="#00FFFF" stroke-width="0.75" stroke-miterlimit="10"/>
<path d="M313.8 162.7C313.8 162.7 312.1 164.5 312.6 165.9C313.1 167.4 315.1 173 315.1 173C315.1 173 314.4 175 315.9 174.7C317.3 174.4 316.7 173.4 315.9 172.9C315.7 171.2 314.6 166.8 315.2 165.6C315.8 164.4 316.3 163.5 316.3 163.5L313.8 162.7Z" fill="#EAAAA7"/>
<path d="M326.9 167.2C326.9 167.2 328.1 170.9 330.1 167.5C332.1 164.2 333 161.9 333 161.9C333 161.9 334.1 161 334.1 160.2C333.2 160.5 332.8 161.7 332.7 160.9C332.4 160.6 332.1 161.9 332.1 161.9C332.1 161.9 329.3 166.6 328.4 165.9C327.4 165.2 326.6 166.6 326.9 167.2Z" fill="#EAAAA7"/>
<path d="M317.5 156.8C317.5 156.8 313.3 160.6 313.3 163.2C315 164.9 316 165.1 316 165.1L317.6 163.6V156.8H317.5Z" fill="#06B58B"/>
<path d="M320.8 157.1C320.8 157.1 318.6 155.9 317.5 156.7C316.4 157.6 316.5 162 317.1 166.8C317.7 171.6 316 174.3 316 174.3C316 174.3 317.3 178.6 327.2 177.3C327.1 174.4 326 172.3 326.1 171C326.2 169.7 327.3 161.6 325.7 159.8C323.9 158.1 322.1 157.6 320.8 157.1Z" fill="#00D3A8"/>
<path d="M322.8 156.8V158.1C322.8 158.1 320.4 158.9 319.4 157.8C319.6 156 319.6 156 319.6 156L320.1 155.4L322.8 156.8Z" fill="#F7C6C9"/>
<path d="M324.9 150.5C324.9 150.5 325.2 151.6 324.9 152.4C324.6 153.2 325.1 153.8 325 154.4C325 155 325.1 157.9 322.8 156.8C320.5 155.7 319.5 154.2 319.4 153.3C319.3 152.4 319.8 150.9 320.7 150.4C321.6 149.9 324.7 149.7 324.9 150.5Z" fill="#F7C6C9"/>
<path d="M325.4 147.7C325.4 147.7 326.5 150.9 323.3 151.7C323.3 153.3 323 154 322.8 154C322.6 154 321 151.7 321.3 153.7C321.6 155.8 321.5 156 321.3 156.2C321.1 156.3 319.8 156.9 319.4 156.7C319 156.4 318 154.6 317.4 153.9C316.8 153.2 315.8 151.1 317.8 150.2C318.1 147.7 320.6 147.7 320.6 147.7C320.6 147.7 324.3 148.7 325.4 147.7Z" fill="#37364A"/>
<path d="M325.7 160.2L328.7 165C328.7 165 327.8 167.4 325.7 167.6C324.6 165.4 325.7 160.2 325.7 160.2Z" fill="#06B58B"/>
<path opacity="0.4" d="M98.3461 339.44C101.785 338.411 104.15 336.161 103.627 334.415C103.104 332.669 99.893 332.088 96.4539 333.117C93.0148 334.146 90.6505 336.396 91.173 338.142C91.6955 339.888 94.907 340.469 98.3461 339.44Z" fill="#C3C7E2"/>
<path d="M97.5 320.8V337.5C97.5 337.9 97.3 338.2 96.8 338.5C95.9 339 94.3 339.1 93.4 338.5C92.9 338.2 92.7 337.9 92.7 337.5V320.8C92.7 321.2 92.9 321.5 93.4 321.8C94.3 322.3 95.9 322.3 96.8 321.8C97.3 321.5 97.5 321.1 97.5 320.8Z" fill="#E8EAF9"/>
<path d="M97.5 320.8V337.5V320.8Z" fill="#E8EAF9" stroke="#B5BEEA" stroke-width="0.5" stroke-miterlimit="10"/>
<path d="M97.5 320.8V337.5V337.6V320.9V320.8Z" fill="#E8EAF9" stroke="#B5BEEA" stroke-width="0.5" stroke-miterlimit="10"/>
<path d="M97.5 320.9V337.6V337.7V321C97.5 321 97.5 321 97.5 320.9Z" fill="#E8EAF9" stroke="#B5BEEA" stroke-width="0.5" stroke-miterlimit="10"/>
<path d="M97.5 321.1V337.8C97.5 337.8 97.5 337.9 97.4 337.9V321.2C97.4 321.1 97.4 321.1 97.5 321.1Z" fill="#E8EAF9" stroke="#B5BEEA" stroke-width="0.5" stroke-miterlimit="10"/>
<path d="M97.4 321.2V337.9L97.3 338V321.3C97.3 321.3 97.4 321.2 97.4 321.2Z" fill="#E8EAF9" stroke="#B5BEEA" stroke-width="0.5" stroke-miterlimit="10"/>
<path d="M97.3 321.3V338C97.3 338.1 97.2 338.1 97.2 338.2V321.5C97.2 321.4 97.3 321.4 97.3 321.3Z" fill="#E8EAF9" stroke="#B5BEEA" stroke-width="0.5" stroke-miterlimit="10"/>
<path d="M97.1 321.5V338.2C97 338.3 96.9 338.4 96.8 338.4V321.7C97 321.7 97.1 321.6 97.1 321.5Z" fill="#E8EAF9" stroke="#B5BEEA" stroke-width="0.5" stroke-miterlimit="10"/>
<path d="M96.8 321.7V338.4C96.6 338.5 96.5 338.6 96.3 338.6V321.9C96.5 321.9 96.7 321.8 96.8 321.7Z" fill="#E8EAF9" stroke="#B5BEEA" stroke-width="0.5" stroke-miterlimit="10"/>
<path d="M96.3 322V338.7C96.2 338.7 96 338.8 95.8 338.8V322.1C96 322.1 96.1 322 96.3 322Z" fill="#E8EAF9" stroke="#B5BEEA" stroke-width="0.5" stroke-miterlimit="10"/>
<path d="M95.8 322.1V338.8C95.7 338.8 95.6 338.8 95.5 338.8V322.1C95.6 322.1 95.7 322.1 95.8 322.1Z" fill="#E8EAF9" stroke="#B5BEEA" stroke-width="0.5" stroke-miterlimit="10"/>
<path d="M95.5 322.1V338.8C95.4 338.8 95.3 338.8 95.2 338.8V322.1C95.3 322.1 95.4 322.1 95.5 322.1Z" fill="#E8EAF9" stroke="#B5BEEA" stroke-width="0.5" stroke-miterlimit="10"/>
<path d="M95.2 322.2V338.9C95.1 338.9 95 338.9 95 338.9V322.2C95.1 322.2 95.2 322.2 95.2 322.2Z" fill="#E8EAF9" stroke="#B5BEEA" stroke-width="0.5" stroke-miterlimit="10"/>
<path d="M95 322.2V338.9C94.9 338.9 94.8 338.9 94.8 338.9V322.2C94.8 322.1 94.9 322.1 95 322.2Z" fill="#E8EAF9" stroke="#B5BEEA" stroke-width="0.5" stroke-miterlimit="10"/>
<path d="M94.8 322.1V338.8C94.7 338.8 94.6 338.8 94.6 338.8V322.1C94.6 322.1 94.7 322.1 94.8 322.1Z" fill="#E8EAF9" stroke="#B5BEEA" stroke-width="0.5" stroke-miterlimit="10"/>
<path d="M94.5 322.1V338.8C94.4 338.8 94.3 338.8 94.3 338.8V322.1C94.4 322.1 94.4 322.1 94.5 322.1Z" fill="#E8EAF9" stroke="#B5BEEA" stroke-width="0.5" stroke-miterlimit="10"/>
<path d="M94.3 322.1V338.8C94.2 338.8 94.1 338.8 94 338.7V322C94.1 322 94.2 322.1 94.3 322.1Z" fill="#E8EAF9" stroke="#B5BEEA" stroke-width="0.5" stroke-miterlimit="10"/>
<path d="M94 322V338.7C93.9 338.7 93.8 338.6 93.7 338.6V321.9C93.8 321.9 93.9 322 94 322Z" fill="#E8EAF9" stroke="#B5BEEA" stroke-width="0.5" stroke-miterlimit="10"/>
<path d="M93.7 321.9V338.6C93.6 338.6 93.5 338.5 93.4 338.4C92.9 338.1 92.7 337.8 92.7 337.4V320.7C92.7 321.1 92.9 321.4 93.4 321.7C93.5 321.8 93.6 321.9 93.7 321.9Z" fill="#E8EAF9" stroke="#B5BEEA" stroke-width="0.5" stroke-miterlimit="10"/>
<path d="M97.5 320.8V337.5C97.5 337.9 97.3 338.2 96.8 338.5C95.9 339 94.3 339.1 93.4 338.5C92.9 338.2 92.7 337.9 92.7 337.5V320.8C92.7 321.2 92.9 321.5 93.4 321.8C94.3 322.3 95.9 322.3 96.8 321.8C97.3 321.5 97.5 321.1 97.5 320.8Z" stroke="#B5BEEA" stroke-width="0.5" stroke-miterlimit="10"/>
<path d="M96.8 319.8C97.7 320.3 97.8 321.2 96.8 321.8C95.9 322.3 94.3 322.4 93.4 321.8C92.5 321.3 92.5 320.4 93.4 319.8C94.3 319.2 95.9 319.2 96.8 319.8Z" fill="#E8EAF9" stroke="#B5BEEA" stroke-width="0.5" stroke-miterlimit="10"/>
<path d="M94.8 306.2L84.6 324L94.8 329.9V306.2Z" fill="#D7DCF2" stroke="#9CA5E5" stroke-width="0.5" stroke-miterlimit="10"/>
<path d="M105 324L94.8 329.9V306.2L105 324Z" fill="#C3C7E0" stroke="#9CA5E5" stroke-width="0.5" stroke-miterlimit="10"/>
<path opacity="0.4" d="M122.732 398.849C126.596 397.697 129.255 395.175 128.671 393.217C128.087 391.259 124.482 390.605 120.618 391.757C116.754 392.909 114.096 395.43 114.68 397.388C115.263 399.347 118.869 400 122.732 398.849Z" fill="#C3C7E2"/>
<path d="M121.9 378L121.8 396.6C121.8 397 121.5 397.4 121 397.7C120 398.3 118.2 398.3 117.2 397.7C116.7 397.4 116.4 397 116.4 396.6L116.5 378C116.5 378.4 116.8 378.8 117.3 379.1C118.4 379.7 120.1 379.7 121.1 379.1C121.6 378.8 121.9 378.4 121.9 378Z" fill="#E8EAF9"/>
<path d="M121.9 378L121.8 396.6L121.9 378Z" fill="#E8EAF9" stroke="#B5BEEA" stroke-width="0.5" stroke-miterlimit="10"/>
<path d="M121.9 378L121.8 396.6C121.8 396.7 121.8 396.7 121.8 396.8L121.9 378.2C121.9 378.1 121.9 378.1 121.9 378Z" fill="#E8EAF9" stroke="#B5BEEA" stroke-width="0.5" stroke-miterlimit="10"/>
<path d="M121.8 378.2L121.7 396.8C121.7 396.9 121.7 396.9 121.7 397L121.8 378.4C121.8 378.3 121.8 378.2 121.8 378.2Z" fill="#E8EAF9" stroke="#B5BEEA" stroke-width="0.5" stroke-miterlimit="10"/>
<path d="M121.8 378.3L121.7 396.9C121.7 397 121.7 397 121.6 397.1L121.7 378.5C121.8 378.5 121.8 378.4 121.8 378.3Z" fill="#E8EAF9" stroke="#B5BEEA" stroke-width="0.5" stroke-miterlimit="10"/>
<path d="M121.7 378.5L121.6 397.1C121.6 397.2 121.5 397.2 121.5 397.3L121.6 378.7C121.7 378.6 121.7 378.6 121.7 378.5Z" fill="#E8EAF9" stroke="#B5BEEA" stroke-width="0.5" stroke-miterlimit="10"/>
<path d="M121.6 378.7L121.5 397.3C121.5 397.4 121.4 397.4 121.3 397.5L121.4 378.9C121.5 378.8 121.6 378.7 121.6 378.7Z" fill="#E8EAF9" stroke="#B5BEEA" stroke-width="0.5" stroke-miterlimit="10"/>
<path d="M121.5 378.8L121.4 397.4C121.3 397.5 121.2 397.6 121.1 397.7L121.2 379.1C121.2 379 121.4 378.9 121.5 378.8Z" fill="#E8EAF9" stroke="#B5BEEA" stroke-width="0.5" stroke-miterlimit="10"/>
<path d="M121.1 379.1L121 397.7C120.8 397.8 120.6 397.9 120.4 398L120.5 379.4C120.7 379.3 120.9 379.2 121.1 379.1Z" fill="#E8EAF9" stroke="#B5BEEA" stroke-width="0.5" stroke-miterlimit="10"/>
<path d="M120.5 379.4L120.4 398C120.2 398.1 120.1 398.1 119.9 398.1L120 379.5C120.1 379.5 120.3 379.4 120.5 379.4Z" fill="#E8EAF9" stroke="#B5BEEA" stroke-width="0.5" stroke-miterlimit="10"/>
<path d="M120 379.5L119.9 398.1C119.8 398.1 119.7 398.1 119.6 398.1L119.7 379.5C119.7 379.5 119.9 379.5 120 379.5Z" fill="#E8EAF9" stroke="#B5BEEA" stroke-width="0.5" stroke-miterlimit="10"/>
<path d="M119.6 379.6L119.5 398.2C119.4 398.2 119.3 398.2 119.2 398.2L119.3 379.6C119.4 379.6 119.5 379.6 119.6 379.6Z" fill="#E8EAF9" stroke="#B5BEEA" stroke-width="0.5" stroke-miterlimit="10"/>
<path d="M119.3 379.6L119.2 398.2C119.1 398.2 119 398.2 118.9 398.2L119 379.6C119.1 379.6 119.2 379.6 119.3 379.6Z" fill="#E8EAF9" stroke="#B5BEEA" stroke-width="0.5" stroke-miterlimit="10"/>
<path d="M119.1 379.6L119 398.2C118.9 398.2 118.8 398.2 118.7 398.2L118.8 379.6C118.9 379.6 119 379.6 119.1 379.6Z" fill="#E8EAF9" stroke="#B5BEEA" stroke-width="0.5" stroke-miterlimit="10"/>
<path d="M118.8 379.6L118.7 398.2C118.6 398.2 118.5 398.2 118.4 398.2L118.5 379.6C118.6 379.5 118.7 379.6 118.8 379.6Z" fill="#E8EAF9" stroke="#B5BEEA" stroke-width="0.5" stroke-miterlimit="10"/>
<path d="M118.5 379.5L118.4 398.1C118.3 398.1 118.2 398.1 118.1 398.1L118.2 379.5C118.3 379.5 118.4 379.5 118.5 379.5Z" fill="#E8EAF9" stroke="#B5BEEA" stroke-width="0.5" stroke-miterlimit="10"/>
<path d="M118.3 379.5L118.2 398.1C118.1 398.1 118 398.1 117.9 398L118 379.4C118.1 379.4 118.2 379.5 118.3 379.5Z" fill="#E8EAF9" stroke="#B5BEEA" stroke-width="0.5" stroke-miterlimit="10"/>
<path d="M118 379.4L117.9 398C117.8 398 117.7 397.9 117.6 397.9L117.7 379.3C117.8 379.3 117.9 379.4 118 379.4Z" fill="#E8EAF9" stroke="#B5BEEA" stroke-width="0.5" stroke-miterlimit="10"/>
<path d="M117.7 379.3L117.6 397.9C117.5 397.8 117.3 397.8 117.2 397.7C116.7 397.4 116.4 397 116.4 396.6L116.5 378C116.5 378.4 116.8 378.8 117.3 379.1C117.4 379.2 117.5 379.3 117.7 379.3Z" fill="#E8EAF9" stroke="#B5BEEA" stroke-width="0.5" stroke-miterlimit="10"/>
<path d="M121.9 378L121.8 396.6C121.8 397 121.5 397.4 121 397.7C120 398.3 118.2 398.3 117.2 397.7C116.7 397.4 116.4 397 116.4 396.6L116.5 378C116.5 378.4 116.8 378.8 117.3 379.1C118.4 379.7 120.1 379.7 121.1 379.1C121.6 378.8 121.9 378.4 121.9 378Z" stroke="#B5BEEA" stroke-width="0.5" stroke-miterlimit="10"/>
<path d="M121.1 376.9C122.2 377.5 122.2 378.5 121.1 379.1C120.1 379.7 118.3 379.7 117.3 379.1C116.2 378.5 116.2 377.5 117.3 376.9C118.3 376.3 120 376.3 121.1 376.9Z" fill="#E8EAF9" stroke="#B5BEEA" stroke-width="0.5" stroke-miterlimit="10"/>
<path d="M118.8 361.9L107.5 381.6L118.8 388.2V361.9Z" fill="#D7DCF2" stroke="#9CA5E5" stroke-width="0.5" stroke-miterlimit="10"/>
<path d="M130.2 381.6L118.8 388.2V361.9L130.2 381.6Z" fill="#C3C7E0" stroke="#9CA5E5" stroke-width="0.5" stroke-miterlimit="10"/>
<path opacity="0.4" d="M285.029 392.043C286.67 391.554 287.795 390.471 287.543 389.624C287.291 388.778 285.756 388.488 284.115 388.977C282.474 389.466 281.349 390.549 281.602 391.396C281.854 392.243 283.389 392.533 285.029 392.043Z" fill="#C3C7E2"/>
<path d="M284.7 383.1V391.1C284.7 391.3 284.6 391.4 284.4 391.6C283.9 391.9 283.2 391.9 282.8 391.6C282.6 391.5 282.5 391.3 282.5 391.1V383.1C282.5 383.3 282.6 383.4 282.8 383.6C283.3 383.9 284 383.9 284.4 383.6C284.6 383.4 284.7 383.3 284.7 383.1Z" fill="#E8EAF9"/>
<path d="M284.7 383.1L284.6 391.1L284.7 383.1Z" fill="#E8EAF9" stroke="#B5BEEA" stroke-width="0.5" stroke-miterlimit="10"/>
<path d="M284.7 383.1V391.1C284.7 391.1 284.7 391.1 284.7 391.2V383.1Z" fill="#E8EAF9" stroke="#B5BEEA" stroke-width="0.5" stroke-miterlimit="10"/>
<path d="M284.7 383.2V391.2C284.7 391.2 284.7 391.2 284.7 391.3V383.2Z" fill="#E8EAF9" stroke="#B5BEEA" stroke-width="0.5" stroke-miterlimit="10"/>
<path d="M284.6 383.2V391.2C284.6 391.2 284.6 391.2 284.6 391.3V383.2C284.6 383.3 284.6 383.2 284.6 383.2Z" fill="#E8EAF9"/>
<path d="M284.6 383.2V391.2C284.6 391.2 284.6 391.2 284.6 391.3V383.2ZM284.6 383.2C284.6 383.3 284.6 383.2 284.6 383.2Z" stroke="#B5BEEA" stroke-width="0.5" stroke-miterlimit="10"/>
<path d="M284.6 383.3V391.3C284.6 391.3 284.6 391.3 284.6 391.4V383.3Z" fill="#E8EAF9" stroke="#B5BEEA" stroke-width="0.5" stroke-miterlimit="10"/>
<path d="M284.6 383.4V391.4C284.6 391.4 284.6 391.5 284.5 391.5L284.6 383.4C284.5 383.4 284.5 383.4 284.6 383.4Z" fill="#E8EAF9"/>
<path d="M284.6 383.4V391.4C284.6 391.4 284.6 391.5 284.5 391.5L284.6 383.4ZM284.6 383.4C284.5 383.4 284.5 383.4 284.6 383.4Z" stroke="#B5BEEA" stroke-width="0.5" stroke-miterlimit="10"/>
<path d="M284.5 383.4V391.4L284.4 391.5V383.5C284.4 383.5 284.5 383.5 284.5 383.4Z" fill="#E8EAF9" stroke="#B5BEEA" stroke-width="0.5" stroke-miterlimit="10"/>
<path d="M284.3 383.5V391.5C284.2 391.5 284.1 391.6 284 391.6V383.6C284.2 383.6 284.3 383.6 284.3 383.5C284.3 383.6 284.3 383.5 284.3 383.5Z" fill="#E8EAF9"/>
<path d="M284.3 383.5V391.5C284.2 391.5 284.1 391.6 284 391.6V383.6C284.2 383.6 284.3 383.6 284.3 383.5ZM284.3 383.5C284.3 383.6 284.3 383.5 284.3 383.5Z" stroke="#B5BEEA" stroke-width="0.5" stroke-miterlimit="10"/>
<path d="M284.1 383.7V391.7C284 391.7 284 391.7 283.9 391.8V383.8C283.9 383.7 284 383.7 284.1 383.7Z" fill="#E8EAF9" stroke="#B5BEEA" stroke-width="0.5" stroke-miterlimit="10"/>
<path d="M283.9 383.7V391.7H283.8V383.7C283.8 383.7 283.8 383.7 283.9 383.7Z" fill="#E8EAF9" stroke="#B5BEEA" stroke-width="0.5" stroke-miterlimit="10"/>
<path d="M283.7 383.7V391.7H283.6V383.7C283.6 383.8 283.7 383.7 283.7 383.7Z" fill="#E8EAF9" stroke="#B5BEEA" stroke-width="0.5" stroke-miterlimit="10"/>
<path d="M283.6 383.8V391.8H283.5V383.8C283.5 383.8 283.5 383.8 283.6 383.8Z" fill="#E8EAF9" stroke="#B5BEEA" stroke-width="0.5" stroke-miterlimit="10"/>
<path d="M283.5 383.8V391.8H283.4V383.8C283.4 383.7 283.4 383.8 283.5 383.8Z" fill="#E8EAF9" stroke="#B5BEEA" stroke-width="0.5" stroke-miterlimit="10"/>
<path d="M283.3 383.7V391.7H283.2V383.7C283.3 383.7 283.3 383.7 283.3 383.7Z" fill="#E8EAF9" stroke="#B5BEEA" stroke-width="0.5" stroke-miterlimit="10"/>
<path d="M283.2 383.7V391.7H283.1V383.7C283.2 383.7 283.2 383.7 283.2 383.7Z" fill="#E8EAF9" stroke="#B5BEEA" stroke-width="0.5" stroke-miterlimit="10"/>
<path d="M283.1 383.7V391.7H283V383.7H283.1Z" fill="#E8EAF9" stroke="#B5BEEA" stroke-width="0.5" stroke-miterlimit="10"/>
<path d="M283 383.7V391.7H282.9V383.7H283Z" fill="#E8EAF9" stroke="#B5BEEA" stroke-width="0.5" stroke-miterlimit="10"/>
<path d="M282.9 383.6V391.6C282.8 391.6 282.8 391.6 282.7 391.5C282.5 391.4 282.4 391.2 282.4 391V383C282.4 383.2 282.5 383.3 282.7 383.5C282.7 383.6 282.8 383.6 282.9 383.6Z" fill="#E8EAF9" stroke="#B5BEEA" stroke-width="0.5" stroke-miterlimit="10"/>
<path d="M284.7 383.1V391.1C284.7 391.3 284.6 391.4 284.4 391.6C283.9 391.9 283.2 391.9 282.8 391.6C282.6 391.5 282.5 391.3 282.5 391.1V383.1C282.5 383.3 282.6 383.4 282.8 383.6C283.3 383.9 284 383.9 284.4 383.6C284.6 383.4 284.7 383.3 284.7 383.1Z" stroke="#B5BEEA" stroke-width="0.5" stroke-miterlimit="10"/>
<path d="M284.3 382.6C284.8 382.9 284.8 383.3 284.3 383.5C283.8 383.8 283.1 383.8 282.7 383.5C282.2 383.2 282.2 382.8 282.7 382.6C283.2 382.4 283.9 382.3 284.3 382.6Z" fill="#E8EAF9" stroke="#B5BEEA" stroke-width="0.5" stroke-miterlimit="10"/>
<path d="M283.4 376.1L278.5 384.6L283.4 387.5V376.1Z" fill="#D7DCF2" stroke="#9CA5E5" stroke-width="0.5" stroke-miterlimit="10"/>
<path d="M288.3 384.6L283.4 387.5V376.1L288.3 384.6Z" fill="#C3C7E0" stroke="#9CA5E5" stroke-width="0.5" stroke-miterlimit="10"/>
<path d="M317.3 3.20011L320 1.60011C321 1.00011 322.5 1.10011 324.1 2.00011C324.7 2.40011 325.3 2.80011 325.9 3.40011L323.1 5.00011C322.5 4.50011 321.9 4.00011 321.3 3.60011C319.7 2.70011 318.3 2.60011 317.3 3.20011Z" fill="#E8EAF9"/>
<path d="M317.3 3.20015L320 1.60015C320.1 1.50015 320.3 1.40015 320.5 1.40015L317.7 3.00015C317.6 3.10015 317.4 3.20015 317.3 3.20015Z" fill="#E8EAF9" stroke="#9CA5E5" stroke-miterlimit="10"/>
<path d="M317.7 3.00005L320.4 1.40005C320.5 1.40005 320.7 1.30005 320.8 1.30005L318.1 2.90005C318 2.90005 317.9 3.00005 317.7 3.00005Z" fill="#E8EAF9" stroke="#9CA5E5" stroke-miterlimit="10"/>
<path d="M318.1 2.90005L320.8 1.30005C320.9 1.30005 321 1.30005 321.1 1.30005L318.4 2.90005C318.3 2.90005 318.2 2.90005 318.1 2.90005Z" fill="#E8EAF9" stroke="#9CA5E5" stroke-miterlimit="10"/>
<path d="M318.5 2.90005L321.2 1.30005C321.3 1.30005 321.4 1.30005 321.5 1.30005L318.8 2.90005C318.7 2.90005 318.6 2.90005 318.5 2.90005Z" fill="#E8EAF9" stroke="#9CA5E5" stroke-miterlimit="10"/>
<path d="M318.8 2.90005L321.5 1.30005C321.6 1.30005 321.7 1.30005 321.8 1.30005L319 2.90005C318.9 2.90005 318.8 2.90005 318.8 2.90005Z" fill="#E8EAF9" stroke="#9CA5E5" stroke-miterlimit="10"/>
<path d="M319 2.90005L321.7 1.30005C321.8 1.30005 321.9 1.30005 322 1.30005L319.3 2.90005C319.2 2.90005 319.1 2.90005 319 2.90005Z" fill="#E8EAF9" stroke="#9CA5E5" stroke-miterlimit="10"/>
<path d="M319.3 2.90005L322 1.30005C322.1 1.30005 322.2 1.30005 322.3 1.30005L319.6 2.90005C319.4 2.90005 319.4 2.90005 319.3 2.90005Z" fill="#E8EAF9" stroke="#9CA5E5" stroke-miterlimit="10"/>
<path d="M319.5 2.90005L322.2 1.30005C322.3 1.30005 322.4 1.30005 322.4 1.40005L319.8 3.00005C319.7 3.00005 319.6 2.90005 319.5 2.90005Z" fill="#E8EAF9" stroke="#9CA5E5" stroke-miterlimit="10"/>
<path d="M319.8 3.00015L322.5 1.40015C322.6 1.40015 322.7 1.40015 322.7 1.50015L320 3.00015C319.9 3.00015 319.8 3.00015 319.8 3.00015Z" fill="#E8EAF9" stroke="#9CA5E5" stroke-miterlimit="10"/>
<path d="M320 3.00015L322.7 1.40015C322.8 1.40015 322.9 1.40015 322.9 1.50015L320.2 3.10015C320.2 3.10015 320.1 3.10015 320 3.00015Z" fill="#E8EAF9" stroke="#9CA5E5" stroke-miterlimit="10"/>
<path d="M320.2 3.1L322.9 1.5C323 1.5 323.1 1.6 323.1 1.6L320.4 3.2C320.4 3.2 320.3 3.2 320.2 3.1Z" fill="#E8EAF9" stroke="#9CA5E5" stroke-miterlimit="10"/>
<path d="M320.5 3.2001L323.2 1.6001C323.3 1.6001 323.4 1.7001 323.4 1.7001L320.7 3.3001C320.6 3.3001 320.5 3.2001 320.5 3.2001Z" fill="#E8EAF9" stroke="#9CA5E5" stroke-miterlimit="10"/>
<path d="M320.7 3.29995L323.4 1.69995C323.5 1.69995 323.6 1.79995 323.6 1.79995L320.9 3.39995C320.8 3.39995 320.8 3.29995 320.7 3.29995Z" fill="#E8EAF9" stroke="#9CA5E5" stroke-miterlimit="10"/>
<path d="M320.9 3.40005L323.6 1.80005C323.7 1.80005 323.8 1.90005 323.8 1.90005L321.1 3.50005C321.1 3.50005 321 3.50005 320.9 3.40005Z" fill="#E8EAF9" stroke="#9CA5E5" stroke-miterlimit="10"/>
<path d="M321.2 3.50015L323.9 1.90015C324 1.90015 324 2.00015 324.1 2.00015C324.1 2.00015 324.1 2.00015 324.2 2.00015L321.5 3.60015C321.5 3.60015 321.5 3.60015 321.4 3.60015C321.3 3.60015 321.2 3.60015 321.2 3.50015Z" fill="#E8EAF9" stroke="#9CA5E5" stroke-miterlimit="10"/>
<path d="M321.4 3.7001L324.1 2.1001C324.2 2.1001 324.3 2.2001 324.3 2.2001L321.6 3.8001C321.5 3.8001 321.5 3.7001 321.4 3.7001Z" fill="#E8EAF9" stroke="#9CA5E5" stroke-miterlimit="10"/>
<path d="M321.6 3.79995L324.3 2.19995C324.4 2.29995 324.5 2.29995 324.5 2.39995L321.9 3.99995C321.8 3.89995 321.7 3.89995 321.6 3.79995Z" fill="#E8EAF9" stroke="#9CA5E5" stroke-miterlimit="10"/>
<path d="M321.9 4.00015L324.6 2.40015C324.7 2.50015 324.8 2.50015 324.8 2.60015L322.1 4.20015C322 4.10015 321.9 4.00015 321.9 4.00015Z" fill="#E8EAF9" stroke="#9CA5E5" stroke-miterlimit="10"/>
<path d="M322.1 4.1L324.8 2.5C324.9 2.6 325 2.6 325.1 2.7L322.4 4.3C322.3 4.3 322.2 4.2 322.1 4.1Z" fill="#E8EAF9" stroke="#9CA5E5" stroke-miterlimit="10"/>
<path d="M322.4 4.29995L325.1 2.69995C325.2 2.79995 325.3 2.79995 325.4 2.89995L322.7 4.49995C322.5 4.49995 322.4 4.39995 322.4 4.29995Z" fill="#E8EAF9" stroke="#9CA5E5" stroke-miterlimit="10"/>
<path d="M322.6 4.50015L325.3 2.90015C325.4 3.00015 325.5 3.10015 325.6 3.10015L322.9 4.70015C322.8 4.70015 322.7 4.60015 322.6 4.50015Z" fill="#E8EAF9" stroke="#9CA5E5" stroke-miterlimit="10"/>
<path d="M322.9 4.79995L325.6 3.19995C325.7 3.29995 325.8 3.39995 325.8 3.39995L323.1 4.99995C323 4.89995 323 4.89995 322.9 4.79995Z" fill="#E8EAF9" stroke="#9CA5E5" stroke-miterlimit="10"/>
<path d="M317.3 3.20011L320 1.60011C321 1.00011 322.5 1.10011 324.1 2.00011C324.7 2.40011 325.3 2.80011 325.9 3.40011L323.1 5.00011C322.5 4.50011 321.9 4.00011 321.3 3.60011C319.7 2.70011 318.3 2.60011 317.3 3.20011Z" stroke="#9CA5E5" stroke-miterlimit="10"/>
<path d="M324.8 3.10003L327.5 1.50003C329 0.70003 331 0.80003 333.2 2.10003L330.5 3.70003C328.3 2.40003 326.3 2.30003 324.8 3.10003Z" fill="#E8EAF9"/>
<path d="M324.8 3.09995L327.5 1.49995C327.7 1.39995 327.9 1.29995 328.2 1.19995L325.5 2.79995C325.2 2.89995 325 2.99995 324.8 3.09995Z" fill="#E8EAF9" stroke="#9CA5E5" stroke-miterlimit="10"/>
<path d="M325.5 2.8L328.2 1.2C328.4 1.1 328.6 1.1 328.8 1L326 2.7C325.8 2.7 325.7 2.7 325.5 2.8Z" fill="#E8EAF9" stroke="#9CA5E5" stroke-miterlimit="10"/>
<path d="M326 2.7L328.7 1.1C328.8 1.1 329 1 329.2 1L326.5 2.6C326.3 2.6 326.2 2.6 326 2.7Z" fill="#E8EAF9" stroke="#9CA5E5" stroke-miterlimit="10"/>
<path d="M326.5 2.6L329.2 1C329.3 1 329.5 1 329.6 1L326.9 2.6C326.8 2.6 326.6 2.6 326.5 2.6Z" fill="#E8EAF9" stroke="#9CA5E5" stroke-miterlimit="10"/>
<path d="M326.9 2.6L329.6 1C329.7 1 329.9 1 330 1L327.3 2.6C327.1 2.6 327 2.6 326.9 2.6Z" fill="#E8EAF9" stroke="#9CA5E5" stroke-miterlimit="10"/>
<path d="M327.3 2.6L330 1C330.1 1 330.2 1 330.4 1L327.7 2.6C327.5 2.6 327.4 2.6 327.3 2.6Z" fill="#E8EAF9" stroke="#9CA5E5" stroke-miterlimit="10"/>
<path d="M327.6 2.6L330.3 1C330.4 1 330.5 1 330.6 1.1L328 2.7C327.9 2.7 327.7 2.6 327.6 2.6Z" fill="#E8EAF9" stroke="#9CA5E5" stroke-miterlimit="10"/>
<path d="M328 2.7001L330.7 1.1001C330.8 1.1001 330.9 1.1001 331 1.2001L328.3 2.8001C328.2 2.7001 328.1 2.7001 328 2.7001Z" fill="#E8EAF9" stroke="#9CA5E5" stroke-miterlimit="10"/>
<path d="M328.3 2.7001L331 1.1001C331.1 1.1001 331.2 1.2001 331.3 1.2001L328.6 2.8001C328.5 2.8001 328.4 2.8001 328.3 2.7001Z" fill="#E8EAF9" stroke="#9CA5E5" stroke-miterlimit="10"/>
<path d="M328.6 2.79995L331.3 1.19995C331.4 1.19995 331.5 1.29995 331.6 1.29995L329 2.89995C328.9 2.89995 328.7 2.89995 328.6 2.79995Z" fill="#E8EAF9" stroke="#9CA5E5" stroke-miterlimit="10"/>
<path d="M329 2.90005L331.7 1.30005C331.8 1.30005 331.9 1.40005 332 1.40005L329.3 3.00005C329.2 3.00005 329.1 3.00005 329 2.90005Z" fill="#E8EAF9" stroke="#9CA5E5" stroke-miterlimit="10"/>
<path d="M329.3 3.1L332 1.5C332.1 1.5 332.2 1.6 332.3 1.6L329.6 3.2C329.5 3.2 329.4 3.1 329.3 3.1Z" fill="#E8EAF9" stroke="#9CA5E5" stroke-miterlimit="10"/>
<path d="M329.6 3.2001L332.3 1.6001C332.4 1.6001 332.5 1.7001 332.6 1.8001L329.9 3.4001C329.8 3.3001 329.7 3.2001 329.6 3.2001Z" fill="#E8EAF9" stroke="#9CA5E5" stroke-miterlimit="10"/>
<path d="M329.9 3.40005L332.6 1.80005C332.7 1.90005 332.8 1.90005 332.9 2.00005L330.2 3.60005C330.1 3.50005 330 3.40005 329.9 3.40005Z" fill="#E8EAF9" stroke="#9CA5E5" stroke-miterlimit="10"/>
<path d="M330.3 3.4999L333 1.8999C333.1 1.8999 333.2 1.9999 333.3 1.9999L330.6 3.5999C330.4 3.5999 330.3 3.5999 330.3 3.4999Z" fill="#E8EAF9" stroke="#9CA5E5" stroke-miterlimit="10"/>
<path d="M324.8 3.10003L327.5 1.50003C329 0.70003 331 0.80003 333.2 2.10003L330.5 3.70003C328.3 2.40003 326.3 2.30003 324.8 3.10003Z" stroke="#9CA5E5" stroke-miterlimit="10"/>
<path d="M330.5 3.7001L333.2 2.1001C336.3 3.9001 338.9 7.4001 340.2 11.0001L337.5 12.6001C336.2 8.9001 333.6 5.4001 330.5 3.7001Z" fill="#E8EAF9"/>
<path d="M330.5 3.7001L333.2 2.1001H333.3L330.5 3.7001C330.6 3.7001 330.5 3.7001 330.5 3.7001Z" fill="#E8EAF9"/>
<path d="M330.5 3.7001L333.2 2.1001H333.3L330.5 3.7001ZM330.5 3.7001C330.6 3.7001 330.5 3.7001 330.5 3.7001Z" stroke="#9CA5E5" stroke-miterlimit="10"/>
<path d="M330.6 3.7001L333.3 2.1001C333.4 2.2001 333.5 2.2001 333.6 2.3001L330.9 3.9001C330.8 3.8001 330.7 3.8001 330.6 3.7001Z" fill="#E8EAF9" stroke="#9CA5E5" stroke-miterlimit="10"/>
<path d="M330.9 3.90005L333.6 2.30005C333.7 2.40005 333.8 2.40005 333.9 2.50005L331.2 4.10005C331.2 4.10005 331 4.00005 330.9 3.90005Z" fill="#E8EAF9" stroke="#9CA5E5" stroke-miterlimit="10"/>
<path d="M331.3 4.1L334 2.5C334.1 2.6 334.2 2.7 334.3 2.7L331.6 4.3C331.5 4.3 331.4 4.2 331.3 4.1Z" fill="#E8EAF9" stroke="#9CA5E5" stroke-miterlimit="10"/>
<path d="M331.6 4.40005L334.3 2.80005C334.4 2.90005 334.5 3.00005 334.7 3.10005L332 4.70005C331.8 4.60005 331.7 4.50005 331.6 4.40005Z" fill="#E8EAF9" stroke="#9CA5E5" stroke-miterlimit="10"/>
<path d="M332 4.7001L334.7 3.1001C334.8 3.2001 334.9 3.3001 335.1 3.4001L332.4 5.0001C332.2 4.9001 332.1 4.8001 332 4.7001Z" fill="#E8EAF9" stroke="#9CA5E5" stroke-miterlimit="10"/>
<path d="M332.3 4.90005L335 3.30005C335.1 3.40005 335.2 3.50005 335.4 3.60005L332.7 5.20005C332.6 5.20005 332.4 5.10005 332.3 4.90005Z" fill="#E8EAF9" stroke="#9CA5E5" stroke-miterlimit="10"/>
<path d="M332.7 5.3002L335.4 3.7002C335.5 3.8002 335.6 3.9002 335.8 4.0002L333 5.6002C332.9 5.5002 332.8 5.4002 332.7 5.3002Z" fill="#E8EAF9" stroke="#9CA5E5" stroke-miterlimit="10"/>
<path d="M333 5.6L335.7 4C335.8 4.1 335.9 4.2 336 4.3L333.3 5.9C333.3 5.8 333.1 5.7 333 5.6Z" fill="#E8EAF9" stroke="#9CA5E5" stroke-miterlimit="10"/>
<path d="M333.4 5.90005L336.1 4.30005C336.2 4.40005 336.3 4.50005 336.4 4.60005L333.7 6.20005C333.6 6.10005 333.5 6.00005 333.4 5.90005Z" fill="#E8EAF9" stroke="#9CA5E5" stroke-miterlimit="10"/>
<path d="M333.7 6.3002L336.4 4.7002C336.5 4.8002 336.6 4.9002 336.7 5.0002L334 6.6002C333.9 6.5002 333.8 6.4002 333.7 6.3002Z" fill="#E8EAF9" stroke="#9CA5E5" stroke-miterlimit="10"/>
<path d="M334 6.6L336.7 5C336.8 5.1 336.9 5.2 337 5.4L334.3 7C334.2 6.8 334.1 6.7 334 6.6Z" fill="#E8EAF9" stroke="#9CA5E5" stroke-miterlimit="10"/>
<path d="M334.3 7.00015L337 5.40015C337.1 5.50015 337.2 5.70015 337.3 5.80015L334.6 7.40015C334.5 7.20015 334.4 7.10015 334.3 7.00015Z" fill="#E8EAF9" stroke="#9CA5E5" stroke-miterlimit="10"/>
<path d="M334.6 7.3002L337.3 5.7002C337.4 5.8002 337.5 6.0002 337.6 6.1002L335 7.8002C334.8 7.6002 334.7 7.5002 334.6 7.3002Z" fill="#E8EAF9" stroke="#9CA5E5" stroke-miterlimit="10"/>
<path d="M335 7.8002L337.7 6.2002C337.9 6.4002 338 6.6002 338.2 6.9002L335.5 8.5002C335.3 8.2002 335.1 8.0002 335 7.8002Z" fill="#E8EAF9" stroke="#9CA5E5" stroke-miterlimit="10"/>
<path d="M335.4 8.50015L338.1 6.90015C338.3 7.20015 338.6 7.60015 338.8 8.00015L336.1 9.60015C335.9 9.20015 335.7 8.80015 335.4 8.50015Z" fill="#E8EAF9" stroke="#9CA5E5" stroke-miterlimit="10"/>
<path d="M336.1 9.50015L338.8 7.90015C338.9 8.10015 339.1 8.40015 339.2 8.60015L336.5 10.2001C336.4 10.0001 336.2 9.80015 336.1 9.50015Z" fill="#E8EAF9" stroke="#9CA5E5" stroke-miterlimit="10"/>
<path d="M336.5 10.2001L339.2 8.6001C339.3 8.8001 339.4 8.9001 339.4 9.1001L336.7 10.7001C336.6 10.5001 336.6 10.4001 336.5 10.2001Z" fill="#E8EAF9" stroke="#9CA5E5" stroke-miterlimit="10"/>
<path d="M336.7 10.7001L339.4 9.1001C339.5 9.2001 339.5 9.4001 339.6 9.5001L336.9 11.1001C336.9 11.0001 336.8 10.8001 336.7 10.7001Z" fill="#E8EAF9" stroke="#9CA5E5" stroke-miterlimit="10"/>
<path d="M336.9 11.1L339.6 9.5C339.7 9.6 339.7 9.8 339.8 9.9L337.1 11.5C337 11.4 337 11.2 336.9 11.1Z" fill="#E8EAF9" stroke="#9CA5E5" stroke-miterlimit="10"/>
<path d="M337.1 11.5001L339.8 9.90015C339.9 10.0001 339.9 10.2001 340 10.3001L337.3 11.9001C337.2 11.7001 337.2 11.6001 337.1 11.5001Z" fill="#E8EAF9" stroke="#9CA5E5" stroke-miterlimit="10"/>
<path d="M337.3 11.9L340 10.3C340.1 10.4 340.1 10.6 340.2 10.7L337.5 12.3C337.4 12.1 337.3 12 337.3 11.9Z" fill="#E8EAF9" stroke="#9CA5E5" stroke-miterlimit="10"/>
<path d="M337.4 12.3002L340.1 10.7002C340.1 10.8002 340.2 10.9002 340.2 11.0002L337.5 12.6002C337.5 12.5002 337.5 12.4002 337.4 12.3002Z" fill="#E8EAF9" stroke="#9CA5E5" stroke-miterlimit="10"/>
<path d="M330.5 3.7001L333.2 2.1001C336.3 3.9001 338.9 7.4001 340.2 11.0001L337.5 12.6001C336.2 8.9001 333.6 5.4001 330.5 3.7001Z" stroke="#9CA5E5" stroke-miterlimit="10"/>
<path d="M347.2 26.5L344.5 28.1C345.6 27.5 346.3 26.1 346.3 24.1C346.3 20.2 343.6 15.4 340.1 13.4C339.2 12.9 338.3 12.6 337.5 12.6L340.2 11C341 11 341.8 11.3 342.8 11.8C346.2 13.8 349 18.6 349 22.5C349 24.5 348.3 25.8 347.2 26.5Z" fill="#E8EAF9"/>
<path d="M337.6 12.6L340.3 11H340.4L337.6 12.6Z" fill="#E8EAF9" stroke="#9CA5E5" stroke-miterlimit="10"/>
<path d="M337.6 12.6L340.3 11C340.4 11 340.5 11 340.6 11L337.9 12.6C337.8 12.6 337.7 12.6 337.6 12.6Z" fill="#E8EAF9" stroke="#9CA5E5" stroke-miterlimit="10"/>
<path d="M337.9 12.6L340.6 11C340.7 11 340.8 11 340.9 11L338.2 12.6C338.1 12.7 338 12.6 337.9 12.6Z" fill="#E8EAF9" stroke="#9CA5E5" stroke-miterlimit="10"/>
<path d="M338.2 12.7001L340.9 11.1001C341 11.1001 341.1 11.1001 341.2 11.2001L338.5 12.8001C338.4 12.7001 338.3 12.7001 338.2 12.7001Z" fill="#E8EAF9" stroke="#9CA5E5" stroke-miterlimit="10"/>
<path d="M338.4 12.7001L341.1 11.1001C341.2 11.1001 341.3 11.1001 341.4 11.2001L338.7 12.8001C338.6 12.8001 338.5 12.8001 338.4 12.7001Z" fill="#E8EAF9" stroke="#9CA5E5" stroke-miterlimit="10"/>
<path d="M338.7 12.8L341.4 11.2C341.5 11.2 341.6 11.3 341.6 11.3L338.9 12.9C338.9 12.9 338.8 12.8 338.7 12.8Z" fill="#E8EAF9" stroke="#9CA5E5" stroke-miterlimit="10"/>
<path d="M338.9 12.9L341.6 11.3C341.7 11.3 341.8 11.4 341.8 11.4L339.1 13C339.1 12.9 339 12.9 338.9 12.9Z" fill="#E8EAF9" stroke="#9CA5E5" stroke-miterlimit="10"/>
<path d="M339.2 12.9999L341.9 11.3999C342 11.3999 342.1 11.4999 342.1 11.4999L339.4 13.0999C339.3 12.9999 339.3 12.9999 339.2 12.9999Z" fill="#E8EAF9" stroke="#9CA5E5" stroke-miterlimit="10"/>
<path d="M339.4 13.1L342.1 11.5C342.2 11.5 342.3 11.6 342.3 11.6L339.6 13.2C339.6 13.2 339.5 13.1 339.4 13.1Z" fill="#E8EAF9" stroke="#9CA5E5" stroke-miterlimit="10"/>
<path d="M339.7 13.2001L342.4 11.6001C342.5 11.6001 342.6 11.7001 342.6 11.7001L339.9 13.3001C339.8 13.3001 339.8 13.2001 339.7 13.2001Z" fill="#E8EAF9" stroke="#9CA5E5" stroke-miterlimit="10"/>
<path d="M339.9 13.3L342.6 11.7C342.7 11.7 342.7 11.8 342.8 11.8C342.8 11.8 342.8 11.8 342.9 11.8L340.2 13.4C340.2 13.4 340.2 13.4 340.1 13.4C340 13.4 340 13.4 339.9 13.3Z" fill="#E8EAF9" stroke="#9CA5E5" stroke-miterlimit="10"/>
<path d="M340.2 13.4999L342.9 11.8999C343 11.9999 343.1 11.9999 343.2 12.0999L340.5 13.6999C340.3 13.5999 340.3 13.4999 340.2 13.4999Z" fill="#E8EAF9" stroke="#9CA5E5" stroke-miterlimit="10"/>
<path d="M340.4 13.6L343.1 12C343.2 12.1 343.3 12.1 343.4 12.2L340.7 13.8C340.6 13.7 340.5 13.7 340.4 13.6Z" fill="#E8EAF9" stroke="#9CA5E5" stroke-miterlimit="10"/>
<path d="M340.7 13.8L343.4 12.2C343.5 12.3 343.6 12.3 343.7 12.4L341 14C340.9 13.9 340.8 13.9 340.7 13.8Z" fill="#E8EAF9" stroke="#9CA5E5" stroke-miterlimit="10"/>
<path d="M341 13.9999L343.7 12.3999C343.8 12.4999 343.9 12.4999 344 12.5999L341.3 14.1999C341.1 14.0999 341.1 14.0999 341 13.9999Z" fill="#E8EAF9" stroke="#9CA5E5" stroke-miterlimit="10"/>
<path d="M341.2 14.2001L343.9 12.6001C344 12.7001 344.1 12.7001 344.2 12.8001L341.5 14.4001C341.4 14.3001 341.3 14.3001 341.2 14.2001Z" fill="#E8EAF9" stroke="#9CA5E5" stroke-miterlimit="10"/>
<path d="M341.5 14.4L344.2 12.8C344.3 12.9 344.4 13 344.5 13L341.8 14.6C341.7 14.6 341.6 14.5 341.5 14.4Z" fill="#E8EAF9" stroke="#9CA5E5" stroke-miterlimit="10"/>
<path d="M341.8 14.7001L344.5 13.1001C344.6 13.2001 344.7 13.3001 344.8 13.4001L342.1 15.0001C342 14.8001 341.9 14.7001 341.8 14.7001Z" fill="#E8EAF9" stroke="#9CA5E5" stroke-miterlimit="10"/>
<path d="M342.1 14.9L344.8 13.3C344.9 13.4 345 13.5 345.1 13.6L342.4 15.2C342.2 15.1 342.1 15 342.1 14.9Z" fill="#E8EAF9" stroke="#9CA5E5" stroke-miterlimit="10"/>
<path d="M342.3 15.2001L345 13.6001C345.1 13.7001 345.2 13.8001 345.3 13.9001L342.6 15.5001C342.5 15.3001 342.4 15.3001 342.3 15.2001Z" fill="#E8EAF9" stroke="#9CA5E5" stroke-miterlimit="10"/>
<path d="M342.6 15.4L345.3 13.8C345.4 13.9 345.5 14 345.5 14.1L342.8 15.7C342.7 15.6 342.7 15.5 342.6 15.4Z" fill="#E8EAF9" stroke="#9CA5E5" stroke-miterlimit="10"/>
<path d="M342.8 15.7001L345.5 14.1001C345.6 14.2001 345.7 14.3001 345.7 14.4001L343 16.0001C343 15.9001 342.9 15.8001 342.8 15.7001Z" fill="#E8EAF9" stroke="#9CA5E5" stroke-miterlimit="10"/>
<path d="M343.1 15.9999L345.8 14.3999C345.9 14.4999 346 14.5999 346 14.6999L343.3 16.2999C343.2 16.1999 343.1 16.0999 343.1 15.9999Z" fill="#E8EAF9" stroke="#9CA5E5" stroke-miterlimit="10"/>
<path d="M343.3 16.3L346 14.7C346.1 14.8 346.2 14.9 346.3 15.1L343.6 16.7C343.5 16.5 343.4 16.4 343.3 16.3Z" fill="#E8EAF9" stroke="#9CA5E5" stroke-miterlimit="10"/>
<path d="M343.6 16.6L346.3 15C346.4 15.2 346.6 15.4 346.7 15.6L344 17.2C343.8 17 343.7 16.8 343.6 16.6Z" fill="#E8EAF9" stroke="#9CA5E5" stroke-miterlimit="10"/>
<path d="M344 17.2001L346.7 15.6001C346.9 15.8001 347 16.1001 347.2 16.3001L344.5 17.9001C344.3 17.7001 344.1 17.4001 344 17.2001Z" fill="#E8EAF9" stroke="#9CA5E5" stroke-miterlimit="10"/>
<path d="M344.4 17.9L347.1 16.3C347.2 16.5 347.3 16.7 347.4 16.8L344.7 18.4C344.6 18.3 344.5 18.1 344.4 17.9Z" fill="#E8EAF9" stroke="#9CA5E5" stroke-miterlimit="10"/>
<path d="M344.7 18.4999L347.4 16.8999C347.5 16.9999 347.5 17.0999 347.6 17.2999L344.9 18.8999C344.8 18.6999 344.8 18.5999 344.7 18.4999Z" fill="#E8EAF9" stroke="#9CA5E5" stroke-miterlimit="10"/>
<path d="M344.9 18.7999L347.6 17.2C347.7 17.3 347.7 17.4 347.8 17.5L345.1 19.1C345 19.1 345 18.8999 344.9 18.7999Z" fill="#E8EAF9" stroke="#9CA5E5" stroke-miterlimit="10"/>
<path d="M345.1 19.2001L347.8 17.6001C347.8 17.7001 347.9 17.8001 347.9 17.9001L345.2 19.5001C345.2 19.4001 345.1 19.3001 345.1 19.2001Z" fill="#E8EAF9" stroke="#9CA5E5" stroke-miterlimit="10"/>
<path d="M345.2 19.4999L347.9 17.8999C347.9 17.9999 348 18.0999 348 18.1999L345.3 19.7999C345.3 19.6999 345.2 19.5999 345.2 19.4999Z" fill="#E8EAF9" stroke="#9CA5E5" stroke-miterlimit="10"/>
<path d="M345.3 19.7999L348 18.2C348 18.3 348.1 18.4 348.1 18.5L345.4 20.1C345.4 20 345.4 19.8999 345.3 19.7999Z" fill="#E8EAF9" stroke="#9CA5E5" stroke-miterlimit="10"/>
<path d="M345.5 20.1L348.2 18.5C348.2 18.6 348.3 18.7 348.3 18.8L345.6 20.4C345.5 20.3 345.5 20.2 345.5 20.1Z" fill="#E8EAF9" stroke="#9CA5E5" stroke-miterlimit="10"/>
<path d="M345.6 20.4L348.3 18.8C348.3 18.9 348.4 19 348.4 19.1L345.7 20.7001C345.6 20.6001 345.6 20.5 345.6 20.4Z" fill="#E8EAF9" stroke="#9CA5E5" stroke-miterlimit="10"/>
<path d="M345.7 20.7001L348.4 19.1001C348.4 19.2001 348.5 19.3001 348.5 19.4001L345.8 21.0001C345.7 20.9001 345.7 20.8001 345.7 20.7001Z" fill="#E8EAF9" stroke="#9CA5E5" stroke-miterlimit="10"/>
<path d="M345.8 20.9999L348.5 19.3999C348.5 19.4999 348.6 19.5999 348.6 19.6999L345.9 21.2999C345.8 21.1999 345.8 21.0999 345.8 20.9999Z" fill="#E8EAF9" stroke="#9CA5E5" stroke-miterlimit="10"/>
<path d="M345.9 21.2999L348.6 19.7C348.6 19.8 348.7 19.9 348.7 20L346 21.6C345.9 21.5 345.9 21.3999 345.9 21.2999Z" fill="#E8EAF9" stroke="#9CA5E5" stroke-miterlimit="10"/>
<path d="M346 21.7001L348.7 20.1001C348.7 20.2001 348.8 20.3001 348.8 20.4001L346 22.0001C346 21.9001 346 21.8001 346 21.7001Z" fill="#E8EAF9" stroke="#9CA5E5" stroke-miterlimit="10"/>
<path d="M346 21.9999L348.7 20.3999C348.7 20.4999 348.7 20.5999 348.8 20.6999L346.1 22.2999C346.1 22.1999 346.1 22.0999 346 21.9999Z" fill="#E8EAF9" stroke="#9CA5E5" stroke-miterlimit="10"/>
<path d="M346.1 22.2999L348.8 20.7C348.8 20.8 348.8 20.9 348.9 21L346.2 22.6C346.1 22.5 346.1 22.3999 346.1 22.2999Z" fill="#E8EAF9" stroke="#9CA5E5" stroke-miterlimit="10"/>
<path d="M346.2 22.6L348.9 21C348.9 21.1 348.9 21.2 348.9 21.3L346.2 22.9C346.2 22.8 346.2 22.7 346.2 22.6Z" fill="#E8EAF9" stroke="#9CA5E5" stroke-miterlimit="10"/>
<path d="M346.2 22.9L348.9 21.3C348.9 21.4 348.9 21.5 348.9 21.6L346.2 23.2001C346.2 23.1001 346.2 23 346.2 22.9Z" fill="#E8EAF9" stroke="#9CA5E5" stroke-miterlimit="10"/>
<path d="M346.2 23.2001L348.9 21.6001C348.9 21.7001 348.9 21.8001 348.9 21.9001L346.2 23.5001C346.2 23.4001 346.2 23.3001 346.2 23.2001Z" fill="#E8EAF9" stroke="#9CA5E5" stroke-miterlimit="10"/>
<path d="M346.3 23.4999L349 21.8999C349 21.9999 349 22.0999 349 22.1999L346.3 23.7999C346.3 23.6999 346.3 23.5999 346.3 23.4999Z" fill="#E8EAF9" stroke="#9CA5E5" stroke-miterlimit="10"/>
<path d="M346.3 23.7999L349 22.2C349 22.3 349 22.4 349 22.5L346.3 24.1C346.3 24 346.3 23.8999 346.3 23.7999Z" fill="#E8EAF9" stroke="#9CA5E5" stroke-miterlimit="10"/>
<path d="M346.3 24.1L349 22.5C349 22.6 349 22.7 349 22.8L346.3 24.4C346.3 24.3 346.3 24.2 346.3 24.1Z" fill="#E8EAF9" stroke="#9CA5E5" stroke-miterlimit="10"/>
<path d="M346.3 24.4L349 22.8C349 22.9 349 23 349 23.1L346.3 24.7001C346.3 24.6001 346.3 24.5 346.3 24.4Z" fill="#E8EAF9" stroke="#9CA5E5" stroke-miterlimit="10"/>
<path d="M346.2 24.7001L348.9 23.1001C348.9 23.2001 348.9 23.3001 348.9 23.4001L346.2 25.0001C346.2 24.9001 346.2 24.8001 346.2 24.7001Z" fill="#E8EAF9" stroke="#9CA5E5" stroke-miterlimit="10"/>
<path d="M346.2 24.9999L348.9 23.3999C348.9 23.4999 348.9 23.5999 348.9 23.6999L346.2 25.2999C346.2 25.1999 346.2 25.0999 346.2 24.9999Z" fill="#E8EAF9" stroke="#9CA5E5" stroke-miterlimit="10"/>
<path d="M346.2 25.2999L348.9 23.7C348.9 23.8 348.9 23.9 348.8 24L346.1 25.6C346.1 25.5 346.2 25.3999 346.2 25.2999Z" fill="#E8EAF9" stroke="#9CA5E5" stroke-miterlimit="10"/>
<path d="M346.1 25.6L348.8 24C348.8 24.1 348.7 24.2 348.7 24.3L346 25.9C346.1 25.8 346.1 25.7 346.1 25.6Z" fill="#E8EAF9" stroke="#9CA5E5" stroke-miterlimit="10"/>
<path d="M346 25.9L348.7 24.3C348.7 24.4 348.6 24.5 348.6 24.6L345.9 26.2001C346 26.1001 346 26 346 25.9Z" fill="#E8EAF9" stroke="#9CA5E5" stroke-miterlimit="10"/>
<path d="M345.9 26.2001L348.6 24.6001C348.6 24.7001 348.5 24.8001 348.5 25.0001L345.8 26.6001C345.8 26.5001 345.9 26.4001 345.9 26.2001Z" fill="#E8EAF9" stroke="#9CA5E5" stroke-miterlimit="10"/>
<path d="M345.8 26.6L348.5 25C348.4 25.1 348.4 25.3 348.3 25.4L345.6 27C345.6 26.9 345.7 26.7 345.8 26.6Z" fill="#E8EAF9" stroke="#9CA5E5" stroke-miterlimit="10"/>
<path d="M345.5 26.9999L348.2 25.3999C347.9 25.7999 347.6 26.1999 347.1 26.3999L344.4 27.9999C344.9 27.7999 345.3 27.4999 345.5 26.9999Z" fill="#E8EAF9" stroke="#9CA5E5" stroke-miterlimit="10"/>
<path d="M347.2 26.5L344.5 28.1C345.6 27.5 346.3 26.1 346.3 24.1C346.3 20.2 343.6 15.4 340.1 13.4C339.2 12.9 338.3 12.6 337.5 12.6L340.2 11C341 11 341.8 11.3 342.8 11.8C346.2 13.8 349 18.6 349 22.5C349 24.5 348.3 25.8 347.2 26.5Z" stroke="#9CA5E5" stroke-miterlimit="10"/>
<path d="M330.5 3.70002C333.6 5.50002 336.2 9.00002 337.5 12.6C338.3 12.6 339.1 12.9 340.1 13.4C343.5 15.4 346.3 20.2 346.3 24.1C346.3 28 343.5 29.6 340.1 27.6C340 27.6 339.9 27.5 339.9 27.5L321.1 16.7C318 14.8 315.6 10.5 315.6 6.90002C315.6 3.30002 318.2 1.80002 321.3 3.60002C321.9 4.00002 322.5 4.40002 323.1 5.00002C324.4 2.40002 327.2 1.80002 330.5 3.70002Z" fill="#E8EAF9" stroke="#9CA5E5" stroke-miterlimit="10"/>
<path d="M92.4 183.8L95.1 182.2C96.1 181.6 97.6 181.7 99.2 182.6C99.8 183 100.4 183.4 101 184L98.3 185.6C97.7 185.1 97.1 184.6 96.5 184.2C94.9 183.3 93.5 183.2 92.4 183.8Z" fill="#E8EAF9"/>
<path d="M92.4 183.8L95.1 182.2C95.2 182.1 95.4 182 95.6 182L92.9 183.6C92.7 183.6 92.6 183.7 92.4 183.8Z" fill="#E8EAF9" stroke="#9CA5E5" stroke-miterlimit="10"/>
<path d="M92.9 183.6L95.6 182C95.7 182 95.9 181.9 96 181.9L93.3 183.5C93.2 183.5 93 183.5 92.9 183.6Z" fill="#E8EAF9" stroke="#9CA5E5" stroke-miterlimit="10"/>
<path d="M93.3 183.5L96 181.9C96.1 181.9 96.2 181.9 96.3 181.9L93.6 183.5C93.5 183.4 93.4 183.4 93.3 183.5Z" fill="#E8EAF9" stroke="#9CA5E5" stroke-miterlimit="10"/>
<path d="M93.6 183.4L96.3 181.8C96.4 181.8 96.5 181.8 96.6 181.8L93.9 183.4C93.8 183.4 93.7 183.4 93.6 183.4Z" fill="#E8EAF9" stroke="#9CA5E5" stroke-miterlimit="10"/>
<path d="M93.9 183.4L96.6 181.8C96.7 181.8 96.8 181.8 96.9 181.8L94.2 183.4C94.1 183.4 94 183.4 93.9 183.4Z" fill="#E8EAF9" stroke="#9CA5E5" stroke-miterlimit="10"/>
<path d="M94.2 183.4L96.9 181.8C97 181.8 97.1 181.8 97.2 181.8L94.5 183.4C94.4 183.4 94.3 183.4 94.2 183.4Z" fill="#E8EAF9" stroke="#9CA5E5" stroke-miterlimit="10"/>
<path d="M94.5 183.4L97.2 181.8C97.3 181.8 97.4 181.8 97.5 181.8L94.8 183.4C94.6 183.5 94.5 183.4 94.5 183.4Z" fill="#E8EAF9" stroke="#9CA5E5" stroke-miterlimit="10"/>
<path d="M94.7 183.5L97.4 181.9C97.5 181.9 97.6 181.9 97.6 182L94.9 183.6C94.9 183.5 94.8 183.5 94.7 183.5Z" fill="#E8EAF9" stroke="#9CA5E5" stroke-miterlimit="10"/>
<path d="M94.9 183.5L97.6 181.9C97.7 181.9 97.8 181.9 97.8 182L95.1 183.6C95.1 183.6 95 183.5 94.9 183.5Z" fill="#E8EAF9" stroke="#9CA5E5" stroke-miterlimit="10"/>
<path d="M95.2 183.6L97.9 182C98 182 98.1 182 98.1 182.1L95.4 183.7C95.3 183.6 95.3 183.6 95.2 183.6Z" fill="#E8EAF9" stroke="#9CA5E5" stroke-miterlimit="10"/>
<path d="M95.4 183.7L98.1 182.1C98.2 182.1 98.3 182.2 98.3 182.2L95.6 183.8C95.6 183.7 95.5 183.7 95.4 183.7Z" fill="#E8EAF9" stroke="#9CA5E5" stroke-miterlimit="10"/>
<path d="M95.6 183.7L98.3 182.1C98.4 182.1 98.5 182.2 98.5 182.2L95.8 183.8C95.8 183.8 95.7 183.8 95.6 183.7Z" fill="#E8EAF9" stroke="#9CA5E5" stroke-miterlimit="10"/>
<path d="M95.9 183.8L98.6 182.2C98.7 182.2 98.8 182.3 98.8 182.3L96.1 183.9C96 183.9 95.9 183.9 95.9 183.8Z" fill="#E8EAF9" stroke="#9CA5E5" stroke-miterlimit="10"/>
<path d="M96.1 184L98.8 182.4C98.9 182.4 99 182.5 99 182.5L96.3 184.1C96.3 184 96.2 184 96.1 184Z" fill="#E8EAF9" stroke="#9CA5E5" stroke-miterlimit="10"/>
<path d="M96.3 184.1L99 182.5C99.1 182.5 99.1 182.6 99.2 182.6C99.2 182.6 99.2 182.6 99.3 182.6L96.6 184.2C96.6 184.2 96.6 184.2 96.5 184.2C96.5 184.1 96.4 184.1 96.3 184.1Z" fill="#E8EAF9" stroke="#9CA5E5" stroke-miterlimit="10"/>
<path d="M96.6 184.2L99.3 182.6C99.4 182.6 99.5 182.7 99.5 182.7L96.8 184.3C96.7 184.3 96.6 184.3 96.6 184.2Z" fill="#E8EAF9" stroke="#9CA5E5" stroke-miterlimit="10"/>
<path d="M96.8 184.4L99.5 182.8C99.6 182.9 99.7 182.9 99.7 183L97 184.6C97 184.5 96.9 184.4 96.8 184.4Z" fill="#E8EAF9" stroke="#9CA5E5" stroke-miterlimit="10"/>
<path d="M97 184.5L99.7 182.9C99.8 183 99.9 183 99.9 183.1L97.2 184.7C97.2 184.6 97.1 184.6 97 184.5Z" fill="#E8EAF9" stroke="#9CA5E5" stroke-miterlimit="10"/>
<path d="M97.3 184.7L100 183.1C100.1 183.2 100.2 183.2 100.3 183.3L97.6 184.9C97.5 184.8 97.4 184.7 97.3 184.7Z" fill="#E8EAF9" stroke="#9CA5E5" stroke-miterlimit="10"/>
<path d="M97.5 184.9L100.2 183.3C100.3 183.4 100.4 183.4 100.5 183.5L97.8 185.1C97.7 185 97.6 184.9 97.5 184.9Z" fill="#E8EAF9" stroke="#9CA5E5" stroke-miterlimit="10"/>
<path d="M97.8 185.1L100.5 183.5C100.6 183.6 100.7 183.7 100.8 183.7L98.1 185.3C98 185.2 97.9 185.2 97.8 185.1Z" fill="#E8EAF9" stroke="#9CA5E5" stroke-miterlimit="10"/>
<path d="M98.1 185.3L100.8 183.7C100.9 183.8 101 183.9 101 183.9L98.3 185.5C98.2 185.5 98.1 185.4 98.1 185.3Z" fill="#E8EAF9" stroke="#9CA5E5" stroke-miterlimit="10"/>
<path d="M92.4 183.8L95.1 182.2C96.1 181.6 97.6 181.7 99.2 182.6C99.8 183 100.4 183.4 101 184L98.3 185.6C97.7 185.1 97.1 184.6 96.5 184.2C94.9 183.3 93.5 183.2 92.4 183.8Z" stroke="#9CA5E5" stroke-miterlimit="10"/>
<path d="M100 183.6L102.7 182C104.2 181.2 106.2 181.3 108.4 182.6L105.7 184.2C103.5 182.9 101.4 182.8 100 183.6Z" fill="#E8EAF9"/>
<path d="M100 183.6L102.7 182C102.9 181.9 103.1 181.8 103.4 181.7L100.7 183.3C100.4 183.4 100.2 183.5 100 183.6Z" fill="#E8EAF9" stroke="#9CA5E5" stroke-miterlimit="10"/>
<path d="M100.6 183.3L103.3 181.7C103.5 181.6 103.7 181.6 103.9 181.5L101.2 183.1C101 183.2 100.8 183.3 100.6 183.3Z" fill="#E8EAF9" stroke="#9CA5E5" stroke-miterlimit="10"/>
<path d="M101.2 183.2L103.9 181.6C104 181.6 104.2 181.5 104.4 181.5L101.7 183.1C101.5 183.1 101.4 183.2 101.2 183.2Z" fill="#E8EAF9" stroke="#9CA5E5" stroke-miterlimit="10"/>
<path d="M101.7 183.1L104.4 181.5C104.5 181.5 104.7 181.5 104.8 181.5L102.1 183.1C101.9 183.1 101.8 183.1 101.7 183.1Z" fill="#E8EAF9" stroke="#9CA5E5" stroke-miterlimit="10"/>
<path d="M102.1 183.1L104.8 181.5C104.9 181.5 105.1 181.5 105.2 181.5L102.5 183.1C102.3 183.1 102.2 183.1 102.1 183.1Z" fill="#E8EAF9" stroke="#9CA5E5" stroke-miterlimit="10"/>
<path d="M102.5 183.1L105.2 181.5C105.3 181.5 105.4 181.5 105.6 181.5L102.9 183.1C102.7 183.1 102.6 183.1 102.5 183.1Z" fill="#E8EAF9" stroke="#9CA5E5" stroke-miterlimit="10"/>
<path d="M102.8 183.2L105.5 181.6C105.6 181.6 105.7 181.6 105.8 181.7L103.1 183.3C103 183.2 102.9 183.2 102.8 183.2Z" fill="#E8EAF9" stroke="#9CA5E5" stroke-miterlimit="10"/>
<path d="M103.2 183.2L105.9 181.6C106 181.6 106.1 181.6 106.2 181.7L103.5 183.3C103.4 183.3 103.3 183.2 103.2 183.2Z" fill="#E8EAF9" stroke="#9CA5E5" stroke-miterlimit="10"/>
<path d="M103.5 183.3L106.2 181.7C106.3 181.7 106.4 181.8 106.5 181.8L103.8 183.4C103.7 183.3 103.6 183.3 103.5 183.3Z" fill="#E8EAF9" stroke="#9CA5E5" stroke-miterlimit="10"/>
<path d="M103.8 183.4L106.5 181.8C106.6 181.8 106.7 181.9 106.8 181.9L104.1 183.5C104 183.4 103.9 183.4 103.8 183.4Z" fill="#E8EAF9" stroke="#9CA5E5" stroke-miterlimit="10"/>
<path d="M104.1 183.5L106.8 181.9C106.9 181.9 107 182 107.1 182L104.4 183.6C104.3 183.6 104.2 183.5 104.1 183.5Z" fill="#E8EAF9" stroke="#9CA5E5" stroke-miterlimit="10"/>
<path d="M104.5 183.6L107.2 182C107.3 182 107.4 182.1 107.5 182.1L104.8 183.7C104.7 183.7 104.6 183.6 104.5 183.6Z" fill="#E8EAF9" stroke="#9CA5E5" stroke-miterlimit="10"/>
<path d="M104.8 183.7L107.5 182.1C107.6 182.1 107.7 182.2 107.8 182.3L105.1 183.9C105 183.8 104.9 183.8 104.8 183.7Z" fill="#E8EAF9" stroke="#9CA5E5" stroke-miterlimit="10"/>
<path d="M105.1 183.9L107.8 182.3C107.9 182.4 108 182.4 108.1 182.5L105.4 184.1C105.3 184 105.2 183.9 105.1 183.9Z" fill="#E8EAF9" stroke="#9CA5E5" stroke-miterlimit="10"/>
<path d="M105.4 184.1L108.1 182.5C108.2 182.5 108.3 182.6 108.4 182.6L105.7 184.2C105.6 184.2 105.5 184.1 105.4 184.1Z" fill="#E8EAF9" stroke="#9CA5E5" stroke-miterlimit="10"/>
<path d="M100 183.6L102.7 182C104.2 181.2 106.2 181.3 108.4 182.6L105.7 184.2C103.5 182.9 101.4 182.8 100 183.6Z" stroke="#9CA5E5" stroke-miterlimit="10"/>
<path d="M105.7 184.2L108.4 182.6C111.5 184.4 114.1 187.9 115.4 191.5L112.7 193.1C111.4 189.5 108.7 186 105.7 184.2Z" fill="#E8EAF9"/>
<path d="M105.7 184.2L108.4 182.6H108.5L105.7 184.2Z" fill="#E8EAF9" stroke="#9CA5E5" stroke-miterlimit="10"/>
<path d="M105.8 184.3L108.5 182.7C108.6 182.8 108.7 182.8 108.8 182.9L106.1 184.5C106 184.4 105.9 184.3 105.8 184.3Z" fill="#E8EAF9" stroke="#9CA5E5" stroke-miterlimit="10"/>
<path d="M106.1 184.5L108.8 182.9C108.9 183 109 183 109.1 183.1L106.4 184.7C106.3 184.6 106.2 184.5 106.1 184.5Z" fill="#E8EAF9" stroke="#9CA5E5" stroke-miterlimit="10"/>
<path d="M106.4 184.7L109.1 183.1C109.2 183.2 109.3 183.3 109.4 183.3L106.7 184.9C106.7 184.8 106.6 184.8 106.4 184.7Z" fill="#E8EAF9" stroke="#9CA5E5" stroke-miterlimit="10"/>
<path d="M106.8 184.9L109.5 183.3C109.6 183.4 109.7 183.5 109.9 183.6L107.2 185.2C107 185.1 106.9 185 106.8 184.9Z" fill="#E8EAF9" stroke="#9CA5E5" stroke-miterlimit="10"/>
<path d="M107.1 185.2L109.8 183.6C109.9 183.7 110 183.8 110.2 183.9L107.5 185.5C107.4 185.4 107.3 185.3 107.1 185.2Z" fill="#E8EAF9" stroke="#9CA5E5" stroke-miterlimit="10"/>
<path d="M107.5 185.5L110.2 183.9C110.3 184 110.4 184.1 110.6 184.2L107.9 185.8C107.7 185.7 107.6 185.6 107.5 185.5Z" fill="#E8EAF9" stroke="#9CA5E5" stroke-miterlimit="10"/>
<path d="M107.9 185.8L110.6 184.2C110.7 184.3 110.8 184.4 111 184.5L108.3 186.1C108.1 186 108 185.9 107.9 185.8Z" fill="#E8EAF9" stroke="#9CA5E5" stroke-miterlimit="10"/>
<path d="M108.2 186.1L110.9 184.5C111 184.6 111.1 184.7 111.2 184.8L108.5 186.4C108.4 186.3 108.3 186.2 108.2 186.1Z" fill="#E8EAF9" stroke="#9CA5E5" stroke-miterlimit="10"/>
<path d="M108.5 186.5L111.2 184.9C111.3 185 111.4 185.1 111.5 185.2L108.8 186.8C108.8 186.7 108.7 186.6 108.5 186.5Z" fill="#E8EAF9" stroke="#9CA5E5" stroke-miterlimit="10"/>
<path d="M108.9 186.8L111.6 185.2C111.7 185.3 111.8 185.4 111.9 185.5L109.2 187.1C109.1 187 109 186.9 108.9 186.8Z" fill="#E8EAF9" stroke="#9CA5E5" stroke-miterlimit="10"/>
<path d="M109.2 187.1L111.9 185.5C112 185.6 112.1 185.7 112.2 185.9L109.5 187.5C109.4 187.4 109.3 187.3 109.2 187.1Z" fill="#E8EAF9" stroke="#9CA5E5" stroke-miterlimit="10"/>
<path d="M109.5 187.5L112.2 185.9C112.3 186 112.4 186.2 112.5 186.3L109.8 187.9C109.7 187.8 109.6 187.6 109.5 187.5Z" fill="#E8EAF9" stroke="#9CA5E5" stroke-miterlimit="10"/>
<path d="M109.8 187.9L112.5 186.3C112.6 186.4 112.7 186.6 112.8 186.7L110.1 188.3C110 188.2 109.9 188 109.8 187.9Z" fill="#E8EAF9" stroke="#9CA5E5" stroke-miterlimit="10"/>
<path d="M110.1 188.3L112.8 186.7C113 186.9 113.1 187.1 113.3 187.4L110.6 189C110.5 188.8 110.3 188.5 110.1 188.3Z" fill="#E8EAF9" stroke="#9CA5E5" stroke-miterlimit="10"/>
<path d="M110.6 189L113.3 187.4C113.5 187.7 113.8 188.1 114 188.5L111.3 190.1C111.1 189.7 110.8 189.3 110.6 189Z" fill="#E8EAF9" stroke="#9CA5E5" stroke-miterlimit="10"/>
<path d="M111.3 190.1L114 188.5C114.1 188.7 114.3 189 114.4 189.2L111.7 190.8C111.5 190.5 111.4 190.3 111.3 190.1Z" fill="#E8EAF9" stroke="#9CA5E5" stroke-miterlimit="10"/>
<path d="M111.7 190.8L114.4 189.2C114.5 189.4 114.6 189.5 114.6 189.7L111.9 191.3C111.8 191.1 111.7 190.9 111.7 190.8Z" fill="#E8EAF9" stroke="#9CA5E5" stroke-miterlimit="10"/>
<path d="M111.9 191.2L114.6 189.6C114.7 189.7 114.7 189.9 114.8 190L112.1 191.6C112 191.5 112 191.4 111.9 191.2Z" fill="#E8EAF9" stroke="#9CA5E5" stroke-miterlimit="10"/>
<path d="M112.1 191.6L114.8 190C114.9 190.1 114.9 190.3 115 190.4L112.3 192C112.2 191.9 112.2 191.8 112.1 191.6Z" fill="#E8EAF9" stroke="#9CA5E5" stroke-miterlimit="10"/>
<path d="M112.3 192L115 190.4C115.1 190.5 115.1 190.7 115.2 190.8L112.5 192.4C112.4 192.3 112.3 192.2 112.3 192Z" fill="#E8EAF9" stroke="#9CA5E5" stroke-miterlimit="10"/>
<path d="M112.4 192.4L115.1 190.8C115.2 190.9 115.2 191.1 115.3 191.2L112.6 192.8C112.6 192.7 112.5 192.5 112.4 192.4Z" fill="#E8EAF9" stroke="#9CA5E5" stroke-miterlimit="10"/>
<path d="M112.6 192.8L115.3 191.2C115.3 191.3 115.4 191.4 115.4 191.5L112.7 193.1C112.7 193 112.6 192.9 112.6 192.8Z" fill="#E8EAF9" stroke="#9CA5E5" stroke-miterlimit="10"/>
<path d="M105.7 184.2L108.4 182.6C111.5 184.4 114.1 187.9 115.4 191.5L112.7 193.1C111.4 189.5 108.7 186 105.7 184.2Z" stroke="#9CA5E5" stroke-miterlimit="10"/>
<path d="M122.4 207L119.7 208.6C120.8 208 121.5 206.6 121.5 204.6C121.5 200.7 118.8 195.9 115.3 193.9C114.4 193.4 113.5 193.1 112.7 193.1L115.4 191.5C116.2 191.5 117 191.8 118 192.3C121.4 194.3 124.2 199.1 124.2 203C124.2 205 123.5 206.4 122.4 207Z" fill="#E8EAF9"/>
<path d="M112.7 193.1L115.4 191.5H115.5L112.7 193.1C112.8 193.1 112.8 193.1 112.7 193.1Z" fill="#E8EAF9"/>
<path d="M112.7 193.1L115.4 191.5H115.5L112.7 193.1ZM112.7 193.1C112.8 193.1 112.8 193.1 112.7 193.1Z" stroke="#9CA5E5" stroke-miterlimit="10"/>
<path d="M112.8 193.1L115.5 191.5C115.6 191.5 115.7 191.5 115.8 191.5L113.1 193.1C113 193.2 112.9 193.1 112.8 193.1Z" fill="#E8EAF9" stroke="#9CA5E5" stroke-miterlimit="10"/>
<path d="M113.1 193.2L115.8 191.6C115.9 191.6 116 191.6 116.1 191.6L113.4 193.2C113.3 193.2 113.2 193.2 113.1 193.2Z" fill="#E8EAF9" stroke="#9CA5E5" stroke-miterlimit="10"/>
<path d="M113.4 193.2L116.1 191.6C116.2 191.6 116.3 191.6 116.4 191.7L113.7 193.3C113.5 193.2 113.4 193.2 113.4 193.2Z" fill="#E8EAF9" stroke="#9CA5E5" stroke-miterlimit="10"/>
<path d="M113.6 193.3L116.3 191.7C116.4 191.7 116.5 191.7 116.6 191.8L113.9 193.4C113.8 193.3 113.7 193.3 113.6 193.3Z" fill="#E8EAF9" stroke="#9CA5E5" stroke-miterlimit="10"/>
<path d="M113.9 193.3L116.6 191.7C116.7 191.7 116.8 191.8 116.8 191.8L114.1 193.4C114 193.4 114 193.4 113.9 193.3Z" fill="#E8EAF9" stroke="#9CA5E5" stroke-miterlimit="10"/>
<path d="M114.1 193.4L116.8 191.8C116.9 191.8 117 191.9 117 191.9L114.3 193.5C114.3 193.5 114.2 193.4 114.1 193.4Z" fill="#E8EAF9" stroke="#9CA5E5" stroke-miterlimit="10"/>
<path d="M114.4 193.5L117.1 191.9C117.2 191.9 117.3 192 117.3 192L114.6 193.6C114.5 193.6 114.4 193.5 114.4 193.5Z" fill="#E8EAF9" stroke="#9CA5E5" stroke-miterlimit="10"/>
<path d="M114.6 193.6L117.3 192C117.4 192 117.5 192.1 117.5 192.1L114.8 193.7C114.8 193.7 114.7 193.7 114.6 193.6Z" fill="#E8EAF9" stroke="#9CA5E5" stroke-miterlimit="10"/>
<path d="M114.8 193.7L117.5 192.1C117.6 192.1 117.7 192.2 117.7 192.2L115 193.8C115 193.8 114.9 193.8 114.8 193.7Z" fill="#E8EAF9" stroke="#9CA5E5" stroke-miterlimit="10"/>
<path d="M115.1 193.9L117.8 192.3C117.9 192.3 117.9 192.4 118 192.4C118 192.4 118 192.4 118.1 192.4L115.4 194C115.4 194 115.4 194 115.3 194C115.2 193.9 115.2 193.9 115.1 193.9Z" fill="#E8EAF9" stroke="#9CA5E5" stroke-miterlimit="10"/>
<path d="M115.4 194L118.1 192.4C118.2 192.5 118.3 192.5 118.4 192.6L115.7 194.2C115.5 194.1 115.4 194.1 115.4 194Z" fill="#E8EAF9" stroke="#9CA5E5" stroke-miterlimit="10"/>
<path d="M115.6 194.2L118.3 192.6C118.4 192.7 118.5 192.7 118.6 192.8L115.9 194.4C115.8 194.3 115.7 194.2 115.6 194.2Z" fill="#E8EAF9" stroke="#9CA5E5" stroke-miterlimit="10"/>
<path d="M115.9 194.3L118.6 192.7C118.7 192.8 118.8 192.8 118.9 192.9L116.2 194.5C116.1 194.5 116 194.4 115.9 194.3Z" fill="#E8EAF9" stroke="#9CA5E5" stroke-miterlimit="10"/>
<path d="M116.1 194.5L118.8 192.9C118.9 193 119 193 119.1 193.1L116.4 194.7C116.3 194.7 116.2 194.6 116.1 194.5Z" fill="#E8EAF9" stroke="#9CA5E5" stroke-miterlimit="10"/>
<path d="M116.4 194.7L119.1 193.1C119.2 193.2 119.3 193.2 119.4 193.3L116.7 194.9C116.6 194.9 116.5 194.8 116.4 194.7Z" fill="#E8EAF9" stroke="#9CA5E5" stroke-miterlimit="10"/>
<path d="M116.7 195L119.4 193.4C119.5 193.5 119.6 193.6 119.7 193.6L117 195.2C116.9 195.1 116.8 195 116.7 195Z" fill="#E8EAF9" stroke="#9CA5E5" stroke-miterlimit="10"/>
<path d="M117 195.2L119.7 193.6C119.8 193.7 119.9 193.8 120 193.9L117.3 195.5C117.1 195.4 117.1 195.3 117 195.2Z" fill="#E8EAF9" stroke="#9CA5E5" stroke-miterlimit="10"/>
<path d="M117.2 195.4L119.9 193.8C120 193.9 120.1 194 120.2 194.1L117.5 195.7C117.4 195.6 117.3 195.5 117.2 195.4Z" fill="#E8EAF9" stroke="#9CA5E5" stroke-miterlimit="10"/>
<path d="M117.5 195.7L120.2 194.1C120.3 194.2 120.4 194.3 120.5 194.4L117.8 196C117.7 195.9 117.6 195.8 117.5 195.7Z" fill="#E8EAF9" stroke="#9CA5E5" stroke-miterlimit="10"/>
<path d="M117.7 196L120.4 194.4C120.5 194.5 120.6 194.6 120.6 194.7L117.9 196.3C117.9 196.1 117.8 196.1 117.7 196Z" fill="#E8EAF9" stroke="#9CA5E5" stroke-miterlimit="10"/>
<path d="M118 196.2L120.7 194.6C120.8 194.7 120.9 194.8 120.9 194.9L118.2 196.5C118.2 196.4 118.1 196.3 118 196.2Z" fill="#E8EAF9" stroke="#9CA5E5" stroke-miterlimit="10"/>
<path d="M118.2 196.5L120.9 194.9C121 195 121.1 195.1 121.1 195.2L118.4 196.8C118.4 196.7 118.3 196.6 118.2 196.5Z" fill="#E8EAF9" stroke="#9CA5E5" stroke-miterlimit="10"/>
<path d="M118.5 196.8L121.2 195.2C121.3 195.3 121.4 195.4 121.5 195.6L118.8 197.2C118.7 197.1 118.6 196.9 118.5 196.8Z" fill="#E8EAF9" stroke="#9CA5E5" stroke-miterlimit="10"/>
<path d="M118.7 197.2L121.4 195.6C121.5 195.8 121.7 196 121.8 196.2L119.1 197.8C119 197.5 118.9 197.4 118.7 197.2Z" fill="#E8EAF9" stroke="#9CA5E5" stroke-miterlimit="10"/>
<path d="M119.1 197.7L121.8 196.1C122 196.3 122.1 196.6 122.3 196.8L119.6 198.4C119.4 198.2 119.3 198 119.1 197.7Z" fill="#E8EAF9" stroke="#9CA5E5" stroke-miterlimit="10"/>
<path d="M119.6 198.5L122.3 196.9C122.4 197.1 122.5 197.3 122.6 197.4L119.9 199C119.8 198.8 119.7 198.6 119.6 198.5Z" fill="#E8EAF9" stroke="#9CA5E5" stroke-miterlimit="10"/>
<path d="M119.9 199L122.6 197.4C122.7 197.5 122.7 197.6 122.8 197.8L120.1 199.4C120 199.3 120 199.1 119.9 199Z" fill="#E8EAF9" stroke="#9CA5E5" stroke-miterlimit="10"/>
<path d="M120.1 199.4L122.8 197.8C122.9 197.9 122.9 198 123 198.1L120.3 199.7C120.2 199.6 120.1 199.5 120.1 199.4Z" fill="#E8EAF9" stroke="#9CA5E5" stroke-miterlimit="10"/>
<path d="M120.2 199.7L122.9 198.1C122.9 198.2 123 198.3 123 198.4L120.3 200C120.3 199.9 120.3 199.8 120.2 199.7Z" fill="#E8EAF9" stroke="#9CA5E5" stroke-miterlimit="10"/>
<path d="M120.4 200L123.1 198.4C123.1 198.5 123.2 198.6 123.2 198.7L120.5 200.3C120.5 200.2 120.4 200.1 120.4 200Z" fill="#E8EAF9" stroke="#9CA5E5" stroke-miterlimit="10"/>
<path d="M120.5 200.3L123.2 198.7C123.2 198.8 123.3 198.9 123.3 199L120.6 200.6C120.6 200.5 120.6 200.4 120.5 200.3Z" fill="#E8EAF9" stroke="#9CA5E5" stroke-miterlimit="10"/>
<path d="M120.6 200.6L123.3 199C123.3 199.1 123.4 199.2 123.4 199.3L120.7 200.9C120.7 200.8 120.7 200.7 120.6 200.6Z" fill="#E8EAF9" stroke="#9CA5E5" stroke-miterlimit="10"/>
<path d="M120.7 200.9L123.4 199.3C123.4 199.4 123.5 199.5 123.5 199.6L120.8 201.2C120.8 201.1 120.8 201 120.7 200.9Z" fill="#E8EAF9" stroke="#9CA5E5" stroke-miterlimit="10"/>
<path d="M120.9 201.2L123.6 199.6C123.6 199.7 123.7 199.8 123.7 199.9L121 201.5C120.9 201.4 120.9 201.3 120.9 201.2Z" fill="#E8EAF9" stroke="#9CA5E5" stroke-miterlimit="10"/>
<path d="M121 201.5L123.7 199.9C123.7 200 123.8 200.1 123.8 200.2L121.1 201.8C121 201.8 121 201.6 121 201.5Z" fill="#E8EAF9" stroke="#9CA5E5" stroke-miterlimit="10"/>
<path d="M121.1 201.9L123.8 200.3C123.8 200.4 123.9 200.5 123.9 200.6L121.2 202.2C121.1 202.1 121.1 202 121.1 201.9Z" fill="#E8EAF9" stroke="#9CA5E5" stroke-miterlimit="10"/>
<path d="M121.1 202.2L123.8 200.6C123.8 200.7 123.9 200.8 123.9 200.9L121.2 202.5C121.2 202.4 121.2 202.3 121.1 202.2Z" fill="#E8EAF9" stroke="#9CA5E5" stroke-miterlimit="10"/>
<path d="M121.2 202.5L123.9 200.9C123.9 201 123.9 201.1 124 201.2L121.3 202.8C121.3 202.7 121.2 202.6 121.2 202.5Z" fill="#E8EAF9" stroke="#9CA5E5" stroke-miterlimit="10"/>
<path d="M121.3 202.8L124 201.2C124 201.3 124 201.4 124.1 201.5L121.4 203.1C121.3 203 121.3 202.9 121.3 202.8Z" fill="#E8EAF9" stroke="#9CA5E5" stroke-miterlimit="10"/>
<path d="M121.3 203.1L124 201.5C124 201.6 124 201.7 124 201.8L121.3 203.4C121.4 203.4 121.3 203.3 121.3 203.1Z" fill="#E8EAF9" stroke="#9CA5E5" stroke-miterlimit="10"/>
<path d="M121.4 203.5L124.1 201.9C124.1 202 124.1 202.1 124.1 202.2L121.4 203.8C121.4 203.7 121.4 203.6 121.4 203.5Z" fill="#E8EAF9" stroke="#9CA5E5" stroke-miterlimit="10"/>
<path d="M121.4 203.8L124.1 202.2C124.1 202.3 124.1 202.4 124.1 202.5L121.4 204.1C121.4 204 121.4 203.9 121.4 203.8Z" fill="#E8EAF9" stroke="#9CA5E5" stroke-miterlimit="10"/>
<path d="M121.4 204.1L124.1 202.5C124.1 202.6 124.1 202.7 124.1 202.8L121.4 204.4C121.4 204.3 121.4 204.2 121.4 204.1Z" fill="#E8EAF9" stroke="#9CA5E5" stroke-miterlimit="10"/>
<path d="M121.4 204.4L124.1 202.8C124.1 202.9 124.1 203 124.1 203.1L121.4 204.7C121.5 204.5 121.5 204.5 121.4 204.4Z" fill="#E8EAF9" stroke="#9CA5E5" stroke-miterlimit="10"/>
<path d="M121.5 204.7L124.2 203.1C124.2 203.2 124.2 203.3 124.2 203.4L121.5 205C121.4 204.9 121.5 204.8 121.5 204.7Z" fill="#E8EAF9" stroke="#9CA5E5" stroke-miterlimit="10"/>
<path d="M121.4 205L124.1 203.4C124.1 203.5 124.1 203.6 124.1 203.7L121.4 205.3C121.4 205.2 121.4 205.1 121.4 205Z" fill="#E8EAF9" stroke="#9CA5E5" stroke-miterlimit="10"/>
<path d="M121.4 205.2L124.1 203.6C124.1 203.7 124.1 203.8 124.1 203.9L121.4 205.5C121.4 205.4 121.4 205.3 121.4 205.2Z" fill="#E8EAF9" stroke="#9CA5E5" stroke-miterlimit="10"/>
<path d="M121.4 205.5L124.1 203.9C124.1 204 124.1 204.1 124.1 204.2L121.4 205.8C121.4 205.7 121.4 205.6 121.4 205.5Z" fill="#E8EAF9" stroke="#9CA5E5" stroke-miterlimit="10"/>
<path d="M121.4 205.8L124.1 204.2C124.1 204.3 124.1 204.4 124 204.5L121.3 206.1C121.3 206 121.3 205.9 121.4 205.8Z" fill="#E8EAF9" stroke="#9CA5E5" stroke-miterlimit="10"/>
<path d="M121.3 206.1L124 204.5C124 204.6 123.9 204.7 123.9 204.8L121.2 206.4C121.2 206.4 121.3 206.3 121.3 206.1Z" fill="#E8EAF9" stroke="#9CA5E5" stroke-miterlimit="10"/>
<path d="M121.2 206.5L123.9 204.9C123.9 205 123.8 205.1 123.8 205.2L121.1 206.8C121.1 206.7 121.2 206.6 121.2 206.5Z" fill="#E8EAF9" stroke="#9CA5E5" stroke-miterlimit="10"/>
<path d="M121.1 206.8L123.8 205.2C123.8 205.3 123.7 205.4 123.7 205.6L121 207.2C121 207 121.1 206.9 121.1 206.8Z" fill="#E8EAF9" stroke="#9CA5E5" stroke-miterlimit="10"/>
<path d="M121 207.1L123.7 205.5C123.6 205.6 123.6 205.8 123.5 205.9L120.8 207.5C120.8 207.4 120.9 207.3 121 207.1Z" fill="#E8EAF9" stroke="#9CA5E5" stroke-miterlimit="10"/>
<path d="M120.7 207.6L123.4 206C123.1 206.4 122.8 206.8 122.3 207L119.6 208.6C120.1 208.4 120.4 208 120.7 207.6Z" fill="#E8EAF9" stroke="#9CA5E5" stroke-miterlimit="10"/>
<path d="M122.4 207L119.7 208.6C120.8 208 121.5 206.6 121.5 204.6C121.5 200.7 118.8 195.9 115.3 193.9C114.4 193.4 113.5 193.1 112.7 193.1L115.4 191.5C116.2 191.5 117 191.8 118 192.3C121.4 194.3 124.2 199.1 124.2 203C124.2 205 123.5 206.4 122.4 207Z" stroke="#9CA5E5" stroke-miterlimit="10"/>
<path d="M105.7 184.2C108.8 186 111.4 189.5 112.7 193.1C113.5 193.1 114.3 193.4 115.3 193.9C118.7 195.9 121.5 200.7 121.5 204.6C121.5 208.5 118.7 210.1 115.3 208.1C115.2 208.1 115.1 208 115.1 208L96.3 197.2C93.2 195.3 90.8 191 90.8 187.4C90.8 183.8 93.4 182.3 96.5 184.1C97.1 184.5 97.7 184.9 98.3 185.5C99.5 183 102.4 182.3 105.7 184.2Z" fill="#E8EAF9" stroke="#9CA5E5" stroke-miterlimit="10"/>
</g>
<defs>
<clipPath id="clip0">
<rect width="402.3" height="417.7" fill="white"/>
</clipPath>
</defs>
</svg>
