<svg width="20" height="16" viewBox="0 0 20 16" fill="none" xmlns="http://www.w3.org/2000/svg">
<path d="M2.08001 0.959961H17.92C18.2701 0.959961 18.6058 1.09903 18.8534 1.34658C19.1009 1.59413 19.24 1.92987 19.24 2.27996V13.72C19.24 14.07 19.1009 14.4058 18.8534 14.6533C18.6058 14.9009 18.2701 15.04 17.92 15.04H2.08001C1.72992 15.04 1.39418 14.9009 1.14663 14.6533C0.899081 14.4058 0.76001 14.07 0.76001 13.72V2.27996C0.76001 1.92987 0.899081 1.59413 1.14663 1.34658C1.39418 1.09903 1.72992 0.959961 2.08001 0.959961ZM2.96001 2.71996C2.90223 2.71996 2.84501 2.73134 2.79163 2.75345C2.73825 2.77557 2.68974 2.80798 2.64888 2.84883C2.60802 2.88969 2.57561 2.9382 2.5535 2.99158C2.53139 3.04496 2.52001 3.10218 2.52001 3.15996V12.84C2.52001 12.9567 2.56637 13.0686 2.64888 13.1511C2.7314 13.2336 2.84331 13.28 2.96001 13.28H17.04C17.1567 13.28 17.2686 13.2336 17.3511 13.1511C17.4337 13.0686 17.48 12.9567 17.48 12.84V3.15996C17.48 3.10218 17.4686 3.04496 17.4465 2.99158C17.4244 2.9382 17.392 2.88969 17.3511 2.84883C17.3103 2.80798 17.2618 2.77557 17.2084 2.75345C17.155 2.73134 17.0978 2.71996 17.04 2.71996H2.96001Z" fill="#34364D"/>
<path d="M9.736 8.03905L17.7396 2.94385L18.6847 4.42885L10.4453 9.67409C10.2334 9.80903 9.98742 9.88071 9.73622 9.88071C9.48502 9.88071 9.23904 9.80903 9.02716 9.67409L0.78772 4.42885L1.73284 2.94385L9.73644 8.03905H9.736Z" fill="#34364D"/>
</svg>
