<svg width="22" height="22" viewBox="0 0 22 22" fill="none" xmlns="http://www.w3.org/2000/svg">
  <path d="M3.23096 16.6296L3.23095 16.6296C0.126147 13.5254 0.126138 8.47408 3.23095 5.37039L5.36741 3.23449C5.36746 3.23444 5.3675 3.2344 5.36755 3.23435C6.10524 2.49271 6.98269 1.90474 7.94912 1.50446C8.91558 1.10417 9.95182 0.899526 10.9979 0.902373M3.23096 16.6296L18.7649 5.3702L16.629 3.2343C15.1252 1.73046 13.1248 0.902408 10.9979 0.902373M3.23096 16.6296L5.36797 18.7655C5.368 18.7655 5.36803 18.7656 5.36807 18.7656C6.10577 19.5073 6.98323 20.0952 7.94968 20.4955C8.91609 20.8958 9.95228 21.1005 10.9983 21.0976M3.23096 16.6296L10.9983 21.0976M10.9979 0.902373C10.9978 0.902373 10.9978 0.902373 10.9977 0.902373V1.00003L10.998 0.902373C10.998 0.902373 10.9979 0.902373 10.9979 0.902373ZM18.6961 16.5611L18.7651 16.6302L16.6292 18.7655L18.6961 16.5611ZM18.6961 16.5611L18.7651 16.6301M18.6961 16.5611L18.7651 16.6301M10.9983 21.0976C12.0444 21.1005 13.0807 20.8958 14.0472 20.4956C15.0137 20.0953 15.8912 19.5073 16.629 18.7657L10.9983 21.0976ZM21.0976 11.0003C21.1005 9.95419 20.8958 8.91793 20.4954 7.95151C20.095 6.98518 19.5069 6.10788 18.7651 5.37041L21.0976 11.0003ZM21.0976 11.0003C21.0975 13.1261 20.2689 15.1263 18.7651 16.6301M21.0976 11.0003L18.7651 16.6301M10.998 2.76435L10.9986 2.76435C11.8 2.76216 12.5939 2.9189 13.3343 3.2255C14.0748 3.5321 14.7471 3.98247 15.3124 4.55057L15.3126 4.55074L17.4487 6.68684C18.6009 7.83908 19.2351 9.37034 19.2351 11V11.0003C19.2372 11.8015 19.0805 12.5952 18.7739 13.3355C18.4673 14.0758 18.0169 14.7479 17.4489 15.313L17.4487 15.3132L15.3126 17.4492C15.3126 17.4492 15.3126 17.4493 15.3126 17.4493C14.1598 18.6015 12.628 19.2356 10.9983 19.2356H10.998C10.1967 19.2379 9.40288 19.0811 8.66251 18.7745C7.92215 18.4679 7.24993 18.0175 6.68477 17.4494L6.68458 17.4492L4.54793 15.3132C2.16941 12.9346 2.16941 9.06536 4.54793 6.68684L6.68404 4.55074L6.68421 4.55056C7.24944 3.9824 7.92175 3.53198 8.66221 3.22537C9.40267 2.91877 10.1966 2.76207 10.998 2.76435Z" fill="#34364D" stroke="#34364D" stroke-width="0.195312"/>
  <path d="M9.61111 8.31998H12.9444C13.1913 8.31998 13.4281 8.2219 13.6027 8.0473C13.7773 7.87271 13.8754 7.63591 13.8754 7.389C13.8754 7.14208 13.7773 6.90528 13.6027 6.73069C13.4281 6.55609 13.1913 6.45801 12.9444 6.45801H9.61111C9.3642 6.45801 9.12739 6.55609 8.9528 6.73069C8.77821 6.90528 8.68012 7.14208 8.68012 7.389C8.68012 7.63591 8.77821 7.87271 8.9528 8.0473C9.12739 8.2219 9.3642 8.31998 9.61111 8.31998ZM7.94445 11.6533H14.6111C14.858 11.6533 15.0948 11.5552 15.2694 11.3806C15.444 11.206 15.5421 10.9692 15.5421 10.7223C15.5421 10.4754 15.444 10.2386 15.2694 10.064C15.0948 9.88942 14.858 9.79133 14.6111 9.79133H7.94445C7.69753 9.79133 7.46073 9.88942 7.28614 10.064C7.11154 10.2386 7.01346 10.4754 7.01346 10.7223C7.01346 10.9692 7.11154 11.206 7.28614 11.3806C7.46073 11.5552 7.69753 11.6533 7.94445 11.6533ZM9.61278 14.9866H12.9461C13.193 14.9866 13.4298 14.8885 13.6044 14.714C13.779 14.5394 13.8771 14.3026 13.8771 14.0556C13.8771 13.8087 13.779 13.5719 13.6044 13.3973C13.4298 13.2227 13.193 13.1247 12.9461 13.1247H9.61278C9.36586 13.1247 9.12906 13.2227 8.95447 13.3973C8.77987 13.5719 8.68179 13.8087 8.68179 14.0556C8.68179 14.3026 8.77987 14.5394 8.95447 14.714C9.12906 14.8885 9.36586 14.9866 9.61278 14.9866Z" fill="#34364D" stroke="#34364D" stroke-width="0.195312"/>
</svg>
