<svg width="44" height="44" viewBox="0 0 44 44" fill="none" xmlns="http://www.w3.org/2000/svg">
<rect opacity="0.2" width="44" height="44" rx="16" fill="#34364D"/>
<g opacity="0.8" clip-path="url(#clip0)">
<path d="M15.9803 21.5978L16.06 21.67L22 27.61L27.94 21.67C28.1252 21.4848 28.3729 21.3754 28.6346 21.3635C28.8962 21.3515 29.1529 21.4378 29.3542 21.6054L29.4243 21.67C29.8093 22.055 29.8334 22.6628 29.4965 23.0753L29.4243 23.155L22.7418 29.8375C22.3582 30.2218 21.7498 30.2459 21.3373 29.909L21.2575 29.8368L14.575 23.1543C14.3844 22.9641 14.2741 22.7078 14.2671 22.4386C14.2601 22.1693 14.3568 21.9077 14.5373 21.7077C14.7178 21.5078 14.9683 21.3849 15.2368 21.3645C15.5054 21.344 15.7716 21.4276 15.9803 21.5978ZM29.3542 14.0429L29.4243 14.1075C29.8093 14.4925 29.8334 15.1003 29.4965 15.5128L29.4243 15.5925L22.7418 22.275C22.3582 22.6593 21.7498 22.6834 21.3373 22.3465L21.2575 22.2743L14.575 15.5925C14.3829 15.4025 14.2715 15.1458 14.2639 14.8757C14.2563 14.6056 14.3532 14.343 14.5343 14.1425C14.7154 13.942 14.9668 13.8191 15.2363 13.7992C15.5057 13.7794 15.7724 13.8642 15.9809 14.036L16.06 14.1075L22 20.0475L27.94 14.1075C28.1252 13.9223 28.3729 13.8129 28.6346 13.801C28.8962 13.789 29.1529 13.8753 29.3542 14.0429Z" fill="white"/>
</g>
<defs>
<clipPath id="clip0">
<rect width="16.5" height="16.5" fill="white" transform="translate(13.75 13.75)"/>
</clipPath>
</defs>
</svg>
