<svg width="24" height="24" viewBox="0 0 24 24" fill="none" xmlns="http://www.w3.org/2000/svg">
  <path d="M13.4565 19.1043L19.6363 12.9245C20.119 12.4418 20.119 11.6594 19.6363 11.1768L13.4565 4.99699C12.9739 4.51435 12.1915 4.51435 11.7089 4.99699C11.2262 5.47963 11.2262 6.26201 11.7089 6.74465L15.7789 10.8147L3.93096 10.8147C3.24809 10.8147 2.69499 11.3678 2.69499 12.0507C2.69499 12.7335 3.24809 13.2866 3.93096 13.2866L15.7789 13.2866L11.7089 17.3567C11.4678 17.5977 11.3467 17.9141 11.3467 18.2305C11.3467 18.5469 11.4672 18.8633 11.7089 19.1044C12.1915 19.587 12.9739 19.587 13.4565 19.1044L13.4565 19.1043Z" fill="white"/>
</svg>